<svg width="90" height="90" viewBox="0 0 90 90" fill="none" xmlns="http://www.w3.org/2000/svg">
  <mask id="path-1-inside-1" fill="white">
    <path fill-rule="evenodd" clip-rule="evenodd" d="M43 37H37V43H43V37ZM53 37H47V43H53V37ZM47 47H53V53H47V47ZM43 47H37V53H43V47Z"/>
  </mask>
  <path d="M37 37V36H36V37H37ZM43 37H44V36H43V37ZM37 43H36V44H37V43ZM43 43V44H44V43H43ZM47 37V36H46V37H47ZM53 37H54V36H53V37ZM47 43H46V44H47V43ZM53 43V44H54V43H53ZM53 47H54V46H53V47ZM47 47V46H46V47H47ZM53 53V54H54V53H53ZM47 53H46V54H47V53ZM37 47V46H36V47H37ZM43 47H44V46H43V47ZM37 53H36V54H37V53ZM43 53V54H44V53H43ZM37 38H43V36H37V38ZM38 43V37H36V43H38ZM43 42H37V44H43V42ZM42 37V43H44V37H42ZM47 38H53V36H47V38ZM48 43V37H46V43H48ZM53 42H47V44H53V42ZM52 37V43H54V37H52ZM53 46H47V48H53V46ZM54 53V47H52V53H54ZM47 54H53V52H47V54ZM46 47V53H48V47H46ZM37 48H43V46H37V48ZM38 53V47H36V53H38ZM43 52H37V54H43V52ZM42 47V53H44V47H42Z" fill="black" mask="url(#path-1-inside-1)"/>
</svg>
