<svg width="16" height="10" viewBox="0 0 16 10" fill="none" xmlns="http://www.w3.org/2000/svg">
  <path d="M6.44531 5.60449H2.26855V10H0.956055V0.046875H7.12207V1.12695H2.26855V4.53125H6.44531V5.60449ZM9.18652 10V0.046875H12.4404C13.5205 0.046875 14.3317 0.270182 14.874 0.716797C15.4209 1.16341 15.6943 1.82422 15.6943 2.69922C15.6943 3.16406 15.5622 3.5765 15.2979 3.93652C15.0335 4.29199 14.6735 4.56771 14.2178 4.76367C14.7555 4.91406 15.1794 5.20117 15.4893 5.625C15.8037 6.04427 15.9609 6.54557 15.9609 7.12891C15.9609 8.02214 15.6715 8.72396 15.0928 9.23438C14.514 9.74479 13.696 10 12.6387 10H9.18652ZM10.499 5.34473V8.92676H12.666C13.2767 8.92676 13.7575 8.76953 14.1084 8.45508C14.4639 8.13607 14.6416 7.69857 14.6416 7.14258C14.6416 5.94401 13.9899 5.34473 12.6865 5.34473H10.499ZM10.499 4.29199H12.4814C13.0557 4.29199 13.5137 4.14844 13.8555 3.86133C14.2018 3.57422 14.375 3.18457 14.375 2.69238C14.375 2.14551 14.2155 1.74902 13.8965 1.50293C13.5775 1.25228 13.0921 1.12695 12.4404 1.12695H10.499V4.29199Z" fill="black"/>
</svg>
