<svg width="12" height="12" viewBox="0 0 12 12" fill="none" xmlns="http://www.w3.org/2000/svg">
  <path d="M1.46777 11H0.155273V1.04688H1.46777V11ZM11.7148 9.69434C11.3776 10.1774 10.9059 10.5397 10.2998 10.7812C9.69824 11.0182 8.99642 11.1367 8.19434 11.1367C7.38314 11.1367 6.66309 10.9476 6.03418 10.5693C5.40527 10.1865 4.91764 9.64421 4.57129 8.94238C4.22949 8.24056 4.05404 7.42708 4.04492 6.50195V5.63379C4.04492 4.13444 4.39355 2.97233 5.09082 2.14746C5.79264 1.32259 6.77702 0.910156 8.04395 0.910156C9.08301 0.910156 9.91927 1.17676 10.5527 1.70996C11.1862 2.23861 11.5736 2.99056 11.7148 3.96582H10.4023C10.1562 2.64876 9.3724 1.99023 8.05078 1.99023C7.17122 1.99023 6.50358 2.30013 6.04785 2.91992C5.59668 3.53516 5.36882 4.42839 5.36426 5.59961V6.41309C5.36426 7.52962 5.61947 8.41829 6.12988 9.0791C6.6403 9.73535 7.33073 10.0635 8.20117 10.0635C8.69336 10.0635 9.12402 10.0088 9.49316 9.89941C9.8623 9.79004 10.1676 9.60547 10.4092 9.3457V7.11035H8.10547V6.04395H11.7148V9.69434Z" fill="black"/>
</svg>
