<svg width="16" height="16" viewBox="0 0 16 16" fill="none" xmlns="http://www.w3.org/2000/svg">
  <mask id="path-1-inside-1" fill="white">
    <path fill-rule="evenodd" clip-rule="evenodd" d="M6 0H0V6H6V0ZM16 0H10V6H16V0ZM10 10H16V16H10V10ZM6 10H0V16H6V10Z"/>
  </mask>
  <path d="M0 0V-1H-1V0H0ZM6 0H7V-1H6V0ZM0 6H-1V7H0V6ZM6 6V7H7V6H6ZM10 0V-1H9V0H10ZM16 0H17V-1H16V0ZM10 6H9V7H10V6ZM16 6V7H17V6H16ZM16 10H17V9H16V10ZM10 10V9H9V10H10ZM16 16V17H17V16H16ZM10 16H9V17H10V16ZM0 10V9H-1V10H0ZM6 10H7V9H6V10ZM0 16H-1V17H0V16ZM6 16V17H7V16H6ZM0 1H6V-1H0V1ZM1 6V0H-1V6H1ZM6 5H0V7H6V5ZM5 0V6H7V0H5ZM10 1H16V-1H10V1ZM11 6V0H9V6H11ZM16 5H10V7H16V5ZM15 0V6H17V0H15ZM16 9H10V11H16V9ZM17 16V10H15V16H17ZM10 17H16V15H10V17ZM9 10V16H11V10H9ZM0 11H6V9H0V11ZM1 16V10H-1V16H1ZM6 15H0V17H6V15ZM5 10V16H7V10H5Z" fill="#CF5916" mask="url(#path-1-inside-1)"/>
</svg>
