<svg width="50" height="50" viewBox="0 0 50 50" fill="none" xmlns="http://www.w3.org/2000/svg">
  <path fill-rule="evenodd" clip-rule="evenodd" d="M30 25C30 27.7614 27.7614 30 25 30C22.2386 30 20 27.7614 20 25C20 22.2386 22.2386 20 25 20C27.7614 20 30 22.2386 30 25ZM28.8744 29.5816C27.829 30.4664 26.4768 31 25 31C21.6863 31 19 28.3137 19 25C19 21.6863 21.6863 19 25 19C28.3137 19 31 21.6863 31 25C31 26.4769 30.4664 27.8291 29.5815 28.8745L33.225 32.518L32.5179 33.2251L28.8744 29.5816Z" fill="black"/>
</svg>
