<svg xmlns="http://www.w3.org/2000/svg" width="874.406" height="105" viewBox="0 0 874.406 105">
  <metadata><?xpacket begin="﻿" id="W5M0MpCehiHzreSzNTczkc9d"?>
<x:xmpmeta xmlns:x="adobe:ns:meta/" x:xmptk="Adobe XMP Core 5.6-c142 79.160924, 2017/07/13-01:06:39        ">
   <rdf:RDF xmlns:rdf="http://www.w3.org/1999/02/22-rdf-syntax-ns#">
      <rdf:Description rdf:about=""/>
   </rdf:RDF>
</x:xmpmeta>
                                                                                                    
                                                                                                    
                                                                                                    
                                                                                                    
                                                                                                    
                                                                                                    
                                                                                                    
                                                                                                    
                                                                                                    
                                                                                                    
                                                                                                    
                                                                                                    
                                                                                                    
                                                                                                    
                                                                                                    
                                                                                                    
                                                                                                    
                                                                                                    
                                                                                                    
                                                                                                    
                           
<?xpacket end="w"?></metadata>
<defs>
    <style>
      .cls-1 {
        fill: #010101;
        fill-rule: evenodd;
      }
    </style>
  </defs>
  <path id="Evgeny_Gerasimov_and_partners_" data-name="Evgeny Gerasimov and partners " class="cls-1" d="M32.426,47.266V41.9H10.058V25.037H30.9V19.671H10.058V7.23H32.426V1.864H4.016v45.4H32.426ZM59.431,13.207L50.185,39.491,40.848,13.207H34.653L47.409,47.266h5.157L65.412,13.207H59.431ZM85.995,40.5a13.069,13.069,0,0,1-4.593.884q-4.273,0-6.179-2.958t-1.907-8.629q0-5.976,2.5-9.178a8.237,8.237,0,0,1,6.866-3.2,15.257,15.257,0,0,1,3.616.442,20.043,20.043,0,0,1,3.952,1.479V38.027A14.454,14.454,0,0,1,85.995,40.5ZM70.661,52.724V58.7a36.247,36.247,0,0,0,4.867,1.067,34.05,34.05,0,0,0,5.111.4q7.781,0,11.565-4.055t3.784-12.715V13.207h-5.4L90.252,14.67a19.2,19.2,0,0,0-3.891-1.784,15.032,15.032,0,0,0-4.593-.625,13.021,13.021,0,0,0-5.432,1.189,13.25,13.25,0,0,0-4.547,3.385,17.194,17.194,0,0,0-3.2,5.565,21.955,21.955,0,0,0-1.19,7.516q0,8.111,3.448,12.441a11.241,11.241,0,0,0,9.277,4.33,14.154,14.154,0,0,0,5.584-.96,17.821,17.821,0,0,0,4.547-2.973v2.988a16.09,16.09,0,0,1-.4,3.75,7.5,7.5,0,0,1-1.373,2.9A6.78,6.78,0,0,1,85.6,54.34a12.727,12.727,0,0,1-4.5.7,16.433,16.433,0,0,1-2.929-.244q-1.343-.245-2.929-0.64-1.435-.366-2.563-0.777t-1.709-.656H70.661Zm51.86-4.909q1.358-.244,3.036-0.7a27.647,27.647,0,0,0,2.686-.93q1.494-.595,2.5-0.991V38.942h-0.336a15.729,15.729,0,0,1-1.77,1.235,23.515,23.515,0,0,1-2.624,1.357,17.446,17.446,0,0,1-3.28,1.1,16.131,16.131,0,0,1-3.708.427q-5.28,0-8.269-3.141t-2.991-9.087h23.619v-3.11a21.272,21.272,0,0,0-.977-6.906,13.169,13.169,0,0,0-2.807-4.772,11.179,11.179,0,0,0-4.272-2.866,15.945,15.945,0,0,0-5.615-.915A14.526,14.526,0,0,0,106.3,17.186q-4.364,4.925-4.363,13.249,0,8.446,4.5,13.035t12.648,4.589A19.977,19.977,0,0,0,122.521,47.815ZM107.767,26.44a12.781,12.781,0,0,1,.855-3.8,9.538,9.538,0,0,1,1.952-2.973,9.277,9.277,0,0,1,2.915-2,11.494,11.494,0,0,1,7.781-.015,6.43,6.43,0,0,1,2.579,1.951,8.231,8.231,0,0,1,1.4,2.836,15.948,15.948,0,0,1,.549,3.994H107.767Zm56.209-1.281q0-6.281-2.838-9.59a9.819,9.819,0,0,0-7.873-3.308,11.9,11.9,0,0,0-5.279,1.22,22.576,22.576,0,0,0-5.066,3.507V13.207h-5.736V47.266h5.736V21.836a22.775,22.775,0,0,1,4.44-2.973,9.793,9.793,0,0,1,4.41-1.143,7.745,7.745,0,0,1,3.417.625,4.473,4.473,0,0,1,1.953,1.906,9.288,9.288,0,0,1,.87,3.247,39.022,39.022,0,0,1,.229,4.376V47.266h5.737V25.159Zm28.318-11.953-9.277,25.217L173.71,13.207h-6.2l12.39,32.413-6.1,14.209h6.133l18.34-46.622h-5.981ZM245.97,47.815A38.836,38.836,0,0,0,250,46.809a31.556,31.556,0,0,0,3.616-1.25q1.936-.793,3.1-1.311V24.428H240.233v5.305h10.5V41.473a17.611,17.611,0,0,1-4.272,1.1,35.6,35.6,0,0,1-5.1.366,15.052,15.052,0,0,1-6.21-1.235,12.917,12.917,0,0,1-4.715-3.583,16.44,16.44,0,0,1-3.082-5.794,26.843,26.843,0,0,1-1.068-7.989q0-8.2,4.044-13.142a13.039,13.039,0,0,1,10.6-4.94,20.614,20.614,0,0,1,5.126.61,21.186,21.186,0,0,1,4.211,1.525,20.442,20.442,0,0,1,3.4,1.936q1.2,0.9,2.334,1.906h0.519V4.943q-1.161-.579-3.037-1.387a31.907,31.907,0,0,0-3.4-1.265,30.772,30.772,0,0,0-4.028-.915,27.926,27.926,0,0,0-4.394-.335,23.791,23.791,0,0,0-8.88,1.616,18.543,18.543,0,0,0-6.835,4.6,21.06,21.06,0,0,0-4.41,7.425A29.312,29.312,0,0,0,220,24.519a31.561,31.561,0,0,0,1.526,10.245,20.151,20.151,0,0,0,4.394,7.471,17.912,17.912,0,0,0,6.866,4.452,25.478,25.478,0,0,0,8.819,1.464A24.271,24.271,0,0,0,245.97,47.815Zm36.114,0q1.357-.244,3.036-0.7a27.647,27.647,0,0,0,2.686-.93q1.494-.595,2.5-0.991V38.942h-0.336a15.729,15.729,0,0,1-1.77,1.235,23.6,23.6,0,0,1-2.624,1.357,17.446,17.446,0,0,1-3.28,1.1,16.131,16.131,0,0,1-3.708.427q-5.28,0-8.27-3.141t-2.99-9.087h23.619v-3.11a21.272,21.272,0,0,0-.977-6.906,13.169,13.169,0,0,0-2.807-4.772,11.179,11.179,0,0,0-4.272-2.866,15.949,15.949,0,0,0-5.615-.915,14.526,14.526,0,0,0-11.413,4.924Q261.5,22.11,261.5,30.435q0,8.446,4.5,13.035t12.648,4.589A19.977,19.977,0,0,0,282.084,47.815ZM267.33,26.44a12.813,12.813,0,0,1,.854-3.8,9.559,9.559,0,0,1,1.953-2.973,9.277,9.277,0,0,1,2.915-2,11.494,11.494,0,0,1,7.781-.015,6.427,6.427,0,0,1,2.578,1.951,8.233,8.233,0,0,1,1.4,2.836,15.948,15.948,0,0,1,.549,3.994H267.33Zm47.481-13.05c-0.366-.061-0.7-0.107-0.991-0.137s-0.738-.046-1.328-0.046a10.269,10.269,0,0,0-4.531,1.143,26.2,26.2,0,0,0-5.478,3.918V13.207h-5.737V47.266h5.737V23.086a14.822,14.822,0,0,1,4.333-2.988,11.36,11.36,0,0,1,4.608-1.006q1.008,0,1.724.046a6.421,6.421,0,0,1,1.358.229h0.305V13.39ZM333.12,41.762a10.254,10.254,0,0,1-4.913,1.174,6.95,6.95,0,0,1-4.821-1.494,5.669,5.669,0,0,1-1.648-4.421,5.367,5.367,0,0,1,1.5-4.04,9.225,9.225,0,0,1,3.784-2.15,27.95,27.95,0,0,1,5.051-.9q3.128-.32,5.172-0.5v9.452A21.3,21.3,0,0,1,333.12,41.762Zm4.12,5.5h5.706V23.97a14.288,14.288,0,0,0-.915-5.427,8.512,8.512,0,0,0-2.777-3.629,11.4,11.4,0,0,0-4.333-1.982,27.158,27.158,0,0,0-5.92-.549,32.078,32.078,0,0,0-5.859.549q-2.961.549-4.547,1.006v5.824h0.336A31.366,31.366,0,0,1,324.3,18.04a22,22,0,0,1,4.668-.595,22.859,22.859,0,0,1,3.265.229,6.723,6.723,0,0,1,2.686.93,4.528,4.528,0,0,1,1.709,1.906,7.379,7.379,0,0,1,.61,3.247v1.1q-4.517.244-8.422,0.747a23.5,23.5,0,0,0-6.775,1.814,10.2,10.2,0,0,0-4.729,3.949,11.475,11.475,0,0,0-1.5,6.022,11.587,11.587,0,0,0,.824,4.345,10.416,10.416,0,0,0,2.2,3.461,10.318,10.318,0,0,0,7.324,3.019,14.481,14.481,0,0,0,3.982-.427,17.145,17.145,0,0,0,2.945-1.22,13.221,13.221,0,0,0,2.273-1.479q1.175-.93,1.877-1.448v3.629ZM366,47.3a13.022,13.022,0,0,0,4.135-2.317,9.178,9.178,0,0,0,2.548-3.369,10.175,10.175,0,0,0,.87-4.162,8.805,8.805,0,0,0-1.907-5.976,10.746,10.746,0,0,0-5.692-3.141q-1.738-.427-3.31-0.747t-2.854-.656a8.947,8.947,0,0,1-3.722-1.723,4.087,4.087,0,0,1-1.16-3.186,3.933,3.933,0,0,1,1.953-3.6,9.053,9.053,0,0,1,4.791-1.189,15.5,15.5,0,0,1,5.447,1.006,17.916,17.916,0,0,1,4.9,2.744H372.3V14.853a20.043,20.043,0,0,0-4.822-1.768,23.958,23.958,0,0,0-5.706-.7q-5.768,0-9.246,2.9a9.308,9.308,0,0,0-3.479,7.5,9.263,9.263,0,0,0,1.77,5.717A10.421,10.421,0,0,0,356.5,31.99q1.494,0.427,3.265.793t2.868,0.64a9.191,9.191,0,0,1,3.952,1.738,4.009,4.009,0,0,1,1.114,3.08,4.742,4.742,0,0,1-.473,2.378,4.83,4.83,0,0,1-1.541,1.494,7.1,7.1,0,0,1-2.319.808,14.571,14.571,0,0,1-2.93.32,12.785,12.785,0,0,1-3.646-.518,24.168,24.168,0,0,1-3.22-1.189,17.007,17.007,0,0,1-2.639-1.464q-0.992-.7-1.724-1.281H348.9v6.434a28.461,28.461,0,0,0,4.928,1.951,21.64,21.64,0,0,0,6.393.915A18,18,0,0,0,366,47.3Zm18.752-34.09h-5.737V47.266h5.737V13.207Zm0.4-11.648h-6.53V7.5h6.53V1.559ZM437.6,47.266V24.855a19.269,19.269,0,0,0-.748-5.824,10.754,10.754,0,0,0-2.121-3.872,7.9,7.9,0,0,0-3.143-2.211,11.147,11.147,0,0,0-4-.686,10.2,10.2,0,0,0-5.371,1.494,22.9,22.9,0,0,0-5.065,4.391,8.6,8.6,0,0,0-3.555-4.513,10.374,10.374,0,0,0-5.356-1.372,9.816,9.816,0,0,0-4.867,1.235,20.725,20.725,0,0,0-4.47,3.491V13.207h-5.737V47.266h5.737V21.836a20.906,20.906,0,0,1,3.967-2.958,7.938,7.938,0,0,1,3.906-1.159,6.744,6.744,0,0,1,3.051.579,3.934,3.934,0,0,1,1.739,1.8,8.7,8.7,0,0,1,.763,3.125q0.183,2,.183,4.345v19.7h5.737V24.855q0-.976-0.046-1.692t-0.076-1.235a19.889,19.889,0,0,1,4.2-3.125,8.131,8.131,0,0,1,3.8-1.082,6.746,6.746,0,0,1,3.052.579,3.934,3.934,0,0,1,1.739,1.8,8.718,8.718,0,0,1,.763,3.125q0.183,2,.183,4.345v19.7H437.6Zm31.949-30.294a15.307,15.307,0,0,0-22.108.015q-4.2,4.727-4.2,13.264,0,8.294,4.074,13.127t11.183,4.833a14.036,14.036,0,0,0,11.047-4.68q4.149-4.68,4.15-13.279Q473.7,21.684,469.553,16.972Zm-4.2,23.052a8.862,8.862,0,0,1-13.762-.061q-2.426-3.308-2.426-9.712,0-6.616,2.426-9.834a8.984,8.984,0,0,1,13.777,0q2.41,3.217,2.411,9.834Q467.783,36.777,465.357,40.024Zm34.68-26.817-9.246,26.284-9.337-26.284h-6.195l12.755,34.059h5.157l12.847-34.059h-5.981ZM544.8,41.762a10.259,10.259,0,0,1-4.913,1.174,6.948,6.948,0,0,1-4.821-1.494,5.666,5.666,0,0,1-1.648-4.421,5.363,5.363,0,0,1,1.5-4.04,9.212,9.212,0,0,1,3.784-2.15,27.937,27.937,0,0,1,5.05-.9q3.128-.32,5.172-0.5v9.452A21.267,21.267,0,0,1,544.8,41.762Zm4.119,5.5h5.707V23.97a14.268,14.268,0,0,0-.916-5.427,8.5,8.5,0,0,0-2.777-3.629,11.394,11.394,0,0,0-4.333-1.982,27.152,27.152,0,0,0-5.92-.549,32.078,32.078,0,0,0-5.859.549q-2.959.549-4.546,1.006v5.824h0.335a31.394,31.394,0,0,1,5.371-1.723,22.009,22.009,0,0,1,4.669-.595,22.87,22.87,0,0,1,3.265.229,6.718,6.718,0,0,1,2.685.93,4.515,4.515,0,0,1,1.709,1.906,7.365,7.365,0,0,1,.61,3.247v1.1q-4.517.244-8.422,0.747a23.505,23.505,0,0,0-6.774,1.814A10.2,10.2,0,0,0,529,31.364a11.475,11.475,0,0,0-1.5,6.022,11.568,11.568,0,0,0,.824,4.345,10.384,10.384,0,0,0,2.2,3.461,10.318,10.318,0,0,0,7.323,3.019,14.489,14.489,0,0,0,3.983-.427,17.1,17.1,0,0,0,2.944-1.22,13.227,13.227,0,0,0,2.274-1.479q1.174-.93,1.876-1.448v3.629Zm40.555-22.106q0-6.281-2.838-9.59a9.819,9.819,0,0,0-7.873-3.308,11.9,11.9,0,0,0-5.279,1.22,22.576,22.576,0,0,0-5.066,3.507V13.207h-5.736V47.266h5.736V21.836a22.775,22.775,0,0,1,4.44-2.973,9.793,9.793,0,0,1,4.41-1.143,7.745,7.745,0,0,1,3.417.625,4.473,4.473,0,0,1,1.953,1.906,9.266,9.266,0,0,1,.87,3.247,39.022,39.022,0,0,1,.229,4.376V47.266h5.737V25.159Zm34.3-25.339h-5.737V14.579a19.6,19.6,0,0,0-4-1.753,15.673,15.673,0,0,0-4.455-.564,12.657,12.657,0,0,0-5.538,1.265,13.275,13.275,0,0,0-4.5,3.491,18.315,18.315,0,0,0-3.2,5.717,23.279,23.279,0,0,0-1.16,7.76A28.583,28.583,0,0,0,596.1,38.1a16.678,16.678,0,0,0,2.593,5.565,10.935,10.935,0,0,0,4.013,3.384,11.526,11.526,0,0,0,5.142,1.159,12.963,12.963,0,0,0,3.051-.32,13.2,13.2,0,0,0,2.533-.9,12.828,12.828,0,0,0,2.289-1.342q0.976-.732,2.319-1.86v3.476h5.737V-0.179Zm-10.04,41.911a11.079,11.079,0,0,1-4.547,1.022,6.658,6.658,0,0,1-6.164-3.186q-1.921-3.186-1.922-9.193,0-6.25,2.5-9.559a8.2,8.2,0,0,1,6.927-3.308,16.142,16.142,0,0,1,3.677.4,18.776,18.776,0,0,1,3.83,1.433V38.972A17.473,17.473,0,0,1,613.736,41.732ZM676.918,16.9a10.571,10.571,0,0,0-9.14-4.635,12.617,12.617,0,0,0-5.691,1.3,21.1,21.1,0,0,0-4.745,3.217V13.207h-5.737V59.829h5.737V45.558a17.592,17.592,0,0,0,4,1.8,15.8,15.8,0,0,0,4.485.579,12.688,12.688,0,0,0,10.3-5.046q4.074-5.046,4.074-13.554Q680.2,21.531,676.918,16.9Zm-5.112,22.625a8.19,8.19,0,0,1-6.927,3.263,15.374,15.374,0,0,1-3.677-.4,20.327,20.327,0,0,1-3.86-1.494v-19.3a20.433,20.433,0,0,1,4.318-2.79,10.846,10.846,0,0,1,4.715-1.082,6.448,6.448,0,0,1,6.042,3.217q1.86,3.217,1.861,9.041Q674.278,36.259,671.806,39.521Zm29.264,2.241a10.257,10.257,0,0,1-4.913,1.174,6.948,6.948,0,0,1-4.821-1.494,5.666,5.666,0,0,1-1.648-4.421,5.363,5.363,0,0,1,1.5-4.04,9.219,9.219,0,0,1,3.784-2.15,27.953,27.953,0,0,1,5.05-.9q3.127-.32,5.173-0.5v9.452A21.3,21.3,0,0,1,701.07,41.762Zm4.12,5.5H710.9V23.97a14.288,14.288,0,0,0-.915-5.427,8.512,8.512,0,0,0-2.777-3.629,11.407,11.407,0,0,0-4.333-1.982,27.158,27.158,0,0,0-5.92-.549,32.078,32.078,0,0,0-5.859.549q-2.961.549-4.547,1.006v5.824h0.336a31.384,31.384,0,0,1,5.37-1.723,22.009,22.009,0,0,1,4.669-.595,22.859,22.859,0,0,1,3.265.229,6.723,6.723,0,0,1,2.686.93,4.519,4.519,0,0,1,1.708,1.906,7.364,7.364,0,0,1,.611,3.247v1.1q-4.517.244-8.422,0.747a23.5,23.5,0,0,0-6.775,1.814,10.209,10.209,0,0,0-4.73,3.949,11.475,11.475,0,0,0-1.5,6.022,11.587,11.587,0,0,0,.824,4.345,10.4,10.4,0,0,0,2.2,3.461,10.318,10.318,0,0,0,7.324,3.019,14.481,14.481,0,0,0,3.982-.427,17.145,17.145,0,0,0,2.945-1.22,13.221,13.221,0,0,0,2.273-1.479q1.174-.93,1.877-1.448v3.629ZM737.017,13.39q-0.549-.091-0.992-0.137t-1.327-.046a10.273,10.273,0,0,0-4.532,1.143,26.224,26.224,0,0,0-5.477,3.918V13.207h-5.737V47.266h5.737V23.086a14.8,14.8,0,0,1,4.333-2.988,11.356,11.356,0,0,1,4.608-1.006q1.007,0,1.724.046a6.432,6.432,0,0,1,1.358.229h0.305V13.39Zm17.836,34.288a27.783,27.783,0,0,0,3.28-.717V41.808H757.8a16.335,16.335,0,0,1-1.892.686,9.023,9.023,0,0,1-2.716.412,7.635,7.635,0,0,1-3.143-.534,3.345,3.345,0,0,1-1.679-1.6,6.781,6.781,0,0,1-.7-2.622q-0.092-1.4-.092-3.994V17.963h10.558V13.207H747.575V3.419h-5.737v9.788h-3.875v4.757h3.875V36.838q0,5.763,2.624,8.431a9.806,9.806,0,0,0,7.324,2.668A20.061,20.061,0,0,0,754.853,47.678Zm34.314-22.518q0-6.281-2.838-9.59a9.819,9.819,0,0,0-7.873-3.308,11.9,11.9,0,0,0-5.279,1.22,22.549,22.549,0,0,0-5.065,3.507V13.207h-5.737V47.266h5.737V21.836a22.716,22.716,0,0,1,4.44-2.973,9.786,9.786,0,0,1,4.409-1.143,7.752,7.752,0,0,1,3.418.625,4.478,4.478,0,0,1,1.953,1.906A9.289,9.289,0,0,1,783.2,23.5a39.022,39.022,0,0,1,.229,4.376V47.266h5.737V25.159Zm26.289,22.655q1.357-.244,3.036-0.7a27.729,27.729,0,0,0,2.685-.93q1.5-.595,2.5-0.991V38.942h-0.335a15.729,15.729,0,0,1-1.77,1.235,23.693,23.693,0,0,1-2.624,1.357,17.481,17.481,0,0,1-3.281,1.1,16.116,16.116,0,0,1-3.707.427q-5.28,0-8.27-3.141t-2.99-9.087H824.32v-3.11a21.274,21.274,0,0,0-.976-6.906,13.171,13.171,0,0,0-2.808-4.772,11.164,11.164,0,0,0-4.272-2.866,15.945,15.945,0,0,0-5.615-.915,14.524,14.524,0,0,0-11.412,4.924q-4.365,4.925-4.364,13.249,0,8.446,4.5,13.035t12.649,4.589A19.985,19.985,0,0,0,815.456,47.815ZM800.7,26.44a12.782,12.782,0,0,1,.854-3.8,9.541,9.541,0,0,1,1.953-2.973,9.261,9.261,0,0,1,2.914-2,11.494,11.494,0,0,1,7.781-.015,6.424,6.424,0,0,1,2.579,1.951,8.25,8.25,0,0,1,1.4,2.836,15.948,15.948,0,0,1,.549,3.994H800.7Zm47.481-13.05q-0.549-.091-0.992-0.137t-1.327-.046a10.277,10.277,0,0,0-4.532,1.143,26.224,26.224,0,0,0-5.477,3.918V13.207h-5.737V47.266h5.737V23.086a14.809,14.809,0,0,1,4.333-2.988,11.36,11.36,0,0,1,4.608-1.006q1.006,0,1.724.046a6.421,6.421,0,0,1,1.358.229h0.3V13.39ZM867.636,47.3a13.022,13.022,0,0,0,4.135-2.317,9.178,9.178,0,0,0,2.548-3.369,10.175,10.175,0,0,0,.87-4.162,8.8,8.8,0,0,0-1.908-5.976,10.739,10.739,0,0,0-5.691-3.141q-1.739-.427-3.31-0.747t-2.854-.656a8.941,8.941,0,0,1-3.722-1.723,4.087,4.087,0,0,1-1.16-3.186,3.933,3.933,0,0,1,1.953-3.6,9.053,9.053,0,0,1,4.791-1.189,15.5,15.5,0,0,1,5.447,1.006,17.916,17.916,0,0,1,4.9,2.744h0.306V14.853a20.043,20.043,0,0,0-4.822-1.768,23.958,23.958,0,0,0-5.706-.7q-5.767,0-9.246,2.9a9.308,9.308,0,0,0-3.479,7.5,9.263,9.263,0,0,0,1.77,5.717,10.421,10.421,0,0,0,5.676,3.491q1.494,0.427,3.265.793t2.868,0.64a9.191,9.191,0,0,1,3.952,1.738,4.009,4.009,0,0,1,1.114,3.08,4.742,4.742,0,0,1-.473,2.378,4.83,4.83,0,0,1-1.541,1.494,7.1,7.1,0,0,1-2.319.808,14.571,14.571,0,0,1-2.93.32,12.785,12.785,0,0,1-3.646-.518,24.168,24.168,0,0,1-3.22-1.189,17.007,17.007,0,0,1-2.639-1.464q-0.993-.7-1.724-1.281h-0.3v6.434a28.461,28.461,0,0,0,4.928,1.951,21.64,21.64,0,0,0,6.393.915A18,18,0,0,0,867.636,47.3ZM12.123,93.554a6.838,6.838,0,0,1-3.275.783,4.633,4.633,0,0,1-3.214-1,3.778,3.778,0,0,1-1.1-2.948,3.575,3.575,0,0,1,1-2.693,6.144,6.144,0,0,1,2.523-1.433,18.622,18.622,0,0,1,3.367-.6q2.085-.213,3.448-0.335v6.3A14.2,14.2,0,0,1,12.123,93.554Zm2.746,3.669h3.8V81.693a9.521,9.521,0,0,0-.61-3.618,5.669,5.669,0,0,0-1.851-2.419,7.6,7.6,0,0,0-2.889-1.321,18.1,18.1,0,0,0-3.947-.366,21.387,21.387,0,0,0-3.906.366Q3.5,74.7,2.44,75.005v3.883H2.663a20.913,20.913,0,0,1,3.58-1.149,14.677,14.677,0,0,1,3.113-.4,15.253,15.253,0,0,1,2.177.153,4.479,4.479,0,0,1,1.79.62,3.013,3.013,0,0,1,1.139,1.271,4.911,4.911,0,0,1,.407,2.165v0.732q-3.011.163-5.615,0.5A15.671,15.671,0,0,0,4.738,83.99a6.8,6.8,0,0,0-3.153,2.633,8.293,8.293,0,0,0-.448,6.911A6.932,6.932,0,0,0,2.6,95.841a6.878,6.878,0,0,0,4.882,2.012,9.655,9.655,0,0,0,2.655-.285,11.4,11.4,0,0,0,1.963-.813,8.813,8.813,0,0,0,1.516-.986q0.783-.62,1.251-0.966v2.419ZM36.087,74.639q-0.366-.061-0.661-0.091t-0.885-.031a6.849,6.849,0,0,0-3.021.762,17.48,17.48,0,0,0-3.652,2.612V74.517H24.044V97.224h3.825V81.1a9.871,9.871,0,0,1,2.889-1.992,7.573,7.573,0,0,1,3.072-.671q0.671,0,1.149.031a4.29,4.29,0,0,1,.905.152h0.2V74.639ZM49.88,97.579q0.773-.152,1.749-0.437a10.649,10.649,0,0,0,1.546-.559q0.854-.376,1.424-0.64V91.654H54.376a11.081,11.081,0,0,1-2.99,1.992,8.458,8.458,0,0,1-3.56.772,5.767,5.767,0,0,1-4.832-2.246A10.026,10.026,0,0,1,41.255,85.9a9.925,9.925,0,0,1,1.8-6.352,5.81,5.81,0,0,1,4.77-2.246,7.619,7.619,0,0,1,2.075.3,10.214,10.214,0,0,1,1.872.712,13.411,13.411,0,0,1,1.556.915q0.641,0.447,1.048.793H54.6V75.737a19.267,19.267,0,0,0-3.1-1.22,12.354,12.354,0,0,0-3.611-.529,11.46,11.46,0,0,0-4.3.8,8.9,8.9,0,0,0-3.346,2.287,11.13,11.13,0,0,0-2.146,3.659,14.9,14.9,0,0,0-.8,5.163,15.966,15.966,0,0,0,.773,5.234,9.962,9.962,0,0,0,2.177,3.689,8.818,8.818,0,0,0,3.357,2.185,12.3,12.3,0,0,0,4.292.722A10.642,10.642,0,0,0,49.88,97.579ZM75.94,82.486q0-4.187-1.892-6.393A6.546,6.546,0,0,0,68.8,73.887a7.934,7.934,0,0,0-3.519.813A15.041,15.041,0,0,0,61.9,77.038V65.594H58.079v31.63H61.9V80.27a15.153,15.153,0,0,1,2.96-1.982,6.525,6.525,0,0,1,2.94-.762,5.166,5.166,0,0,1,2.279.417,2.984,2.984,0,0,1,1.3,1.27,6.2,6.2,0,0,1,.58,2.165,26.064,26.064,0,0,1,.153,2.917V97.224H75.94V82.486Zm9.276-7.969H81.392V97.224h3.825V74.517Zm0.264-7.765H81.128v3.964h4.353V66.752ZM99.833,97.5a18.533,18.533,0,0,0,2.187-.478V93.585H101.8a10.786,10.786,0,0,1-1.261.457,6.012,6.012,0,0,1-1.81.275,5.09,5.09,0,0,1-2.1-.356,2.229,2.229,0,0,1-1.119-1.067,4.517,4.517,0,0,1-.468-1.748q-0.061-.935-0.061-2.663V77.689h7.039V74.517H94.981V67.992H91.157v6.525H88.573v3.171h2.584V90.271q0,3.842,1.749,5.621a6.536,6.536,0,0,0,4.882,1.779A13.375,13.375,0,0,0,99.833,97.5ZM117,97.59q0.9-.163,2.024-0.468a18.4,18.4,0,0,0,1.79-.62q1-.4,1.669-0.661V91.674h-0.224a10.54,10.54,0,0,1-1.18.823,15.721,15.721,0,0,1-1.75.9,11.632,11.632,0,0,1-2.187.732,10.748,10.748,0,0,1-2.471.285,7.248,7.248,0,0,1-5.513-2.094,8.449,8.449,0,0,1-1.994-6.058h15.746V84.193a14.182,14.182,0,0,0-.651-4.6,8.771,8.771,0,0,0-1.872-3.181,7.451,7.451,0,0,0-2.848-1.911,10.63,10.63,0,0,0-3.743-.61,9.681,9.681,0,0,0-7.608,3.283q-2.91,3.283-2.91,8.832,0,5.631,3,8.69t8.432,3.059A13.332,13.332,0,0,0,117,97.59Zm-9.836-14.25a8.5,8.5,0,0,1,.57-2.531,6.349,6.349,0,0,1,1.3-1.982,6.175,6.175,0,0,1,1.942-1.331,7.665,7.665,0,0,1,5.188-.01,4.291,4.291,0,0,1,1.719,1.3,5.489,5.489,0,0,1,.936,1.891,10.648,10.648,0,0,1,.366,2.663H107.167ZM137.8,97.579q0.772-.152,1.75-0.437a10.7,10.7,0,0,0,1.546-.559q0.854-.376,1.424-0.64V91.654H142.3a11.076,11.076,0,0,1-2.991,1.992,8.454,8.454,0,0,1-3.56.772,5.766,5.766,0,0,1-4.831-2.246,10.023,10.023,0,0,1-1.74-6.271,9.927,9.927,0,0,1,1.8-6.352,5.809,5.809,0,0,1,4.77-2.246,7.615,7.615,0,0,1,2.075.3,10.213,10.213,0,0,1,1.872.712,13.413,13.413,0,0,1,1.556.915q0.64,0.447,1.048.793h0.224V75.737a19.265,19.265,0,0,0-3.1-1.22,12.349,12.349,0,0,0-3.611-.529,11.457,11.457,0,0,0-4.3.8,8.9,8.9,0,0,0-3.347,2.287,11.138,11.138,0,0,0-2.146,3.659,14.9,14.9,0,0,0-.8,5.163,15.956,15.956,0,0,0,.773,5.234,9.967,9.967,0,0,0,2.176,3.689,8.82,8.82,0,0,0,3.357,2.185,12.3,12.3,0,0,0,4.292.722A10.647,10.647,0,0,0,137.8,97.579Zm17.119-.081a18.527,18.527,0,0,0,2.187-.478V93.585h-0.224a10.857,10.857,0,0,1-1.261.457,6.013,6.013,0,0,1-1.811.275,5.086,5.086,0,0,1-2.095-.356,2.226,2.226,0,0,1-1.119-1.067,4.532,4.532,0,0,1-.468-1.748q-0.061-.935-0.061-2.663V77.689h7.039V74.517h-7.039V67.992h-3.824v6.525h-2.584v3.171h2.584V90.271q0,3.842,1.749,5.621a6.536,6.536,0,0,0,4.882,1.779A13.375,13.375,0,0,0,154.923,97.5Zm22.713-22.981h-3.824V91.471a13.667,13.667,0,0,1-2.909,1.952,6.72,6.72,0,0,1-2.991.793,5.237,5.237,0,0,1-2.309-.407,2.935,2.935,0,0,1-1.271-1.281,5.851,5.851,0,0,1-.6-2.084,27.727,27.727,0,0,1-.133-3V74.517h-3.824V89.255a12.335,12.335,0,0,0,.539,3.9,7.265,7.265,0,0,0,1.516,2.663,5.857,5.857,0,0,0,2.288,1.545,7.96,7.96,0,0,0,2.8.488,7.73,7.73,0,0,0,3.54-.8,16.649,16.649,0,0,0,3.357-2.348v2.521h3.824V74.517Zm17.577,0.122c-0.244-.041-0.465-0.071-0.661-0.091s-0.492-.031-0.885-0.031a6.845,6.845,0,0,0-3.021.762,17.476,17.476,0,0,0-3.652,2.612V74.517H183.17V97.224h3.824V81.1a9.882,9.882,0,0,1,2.889-1.992,7.572,7.572,0,0,1,3.072-.671q0.67,0,1.149.031a4.273,4.273,0,0,1,.9.152h0.2V74.639Zm12.206,18.915a6.839,6.839,0,0,1-3.275.783,4.636,4.636,0,0,1-3.215-1,3.779,3.779,0,0,1-1.1-2.948,3.574,3.574,0,0,1,1-2.693,6.14,6.14,0,0,1,2.522-1.433,18.639,18.639,0,0,1,3.367-.6q2.085-.213,3.448-0.335v6.3A14.2,14.2,0,0,1,207.419,93.554Zm2.746,3.669h3.8V81.693a9.519,9.519,0,0,0-.61-3.618,5.669,5.669,0,0,0-1.851-2.419,7.6,7.6,0,0,0-2.889-1.321,18.1,18.1,0,0,0-3.946-.366,21.383,21.383,0,0,0-3.906.366q-1.974.366-3.032,0.671v3.883h0.224a20.928,20.928,0,0,1,3.581-1.149,14.669,14.669,0,0,1,3.112-.4,15.25,15.25,0,0,1,2.177.153,4.477,4.477,0,0,1,1.79.62,3.011,3.011,0,0,1,1.139,1.271,4.9,4.9,0,0,1,.407,2.165v0.732q-3.011.163-5.614,0.5a15.673,15.673,0,0,0-4.517,1.209,6.8,6.8,0,0,0-3.153,2.633,8.288,8.288,0,0,0-.447,6.911,6.933,6.933,0,0,0,1.464,2.307,6.881,6.881,0,0,0,4.883,2.012,9.647,9.647,0,0,0,2.654-.285,11.422,11.422,0,0,0,1.964-.813,8.806,8.806,0,0,0,1.515-.986q0.783-.62,1.251-0.966v2.419Zm13.081-31.63h-3.825v31.63h3.825V65.594Zm42.334,8.924L261.8,92.1l-5.534-17.583H253.11L247.719,92.1l-4.008-17.583h-3.987l5.818,22.706h3.52l5.513-17.5,5.553,17.5h3.54l5.757-22.706H265.58Zm23.151,2.511a10.205,10.205,0,0,0-14.739.01q-2.8,3.151-2.8,8.843,0,5.53,2.716,8.751a9.232,9.232,0,0,0,7.456,3.222,9.356,9.356,0,0,0,7.364-3.12q2.766-3.12,2.767-8.853Q291.5,80.169,288.731,77.028Zm-2.8,15.368a5.908,5.908,0,0,1-9.175-.041q-1.617-2.205-1.617-6.474,0-4.411,1.617-6.556a5.99,5.99,0,0,1,9.185,0q1.606,2.145,1.607,6.556Q287.551,90.231,285.934,92.4Zm21.533-17.756q-0.366-.061-0.661-0.091c-0.2-.02-0.491-0.031-0.885-0.031a6.852,6.852,0,0,0-3.021.762,17.473,17.473,0,0,0-3.651,2.612V74.517h-3.825V97.224h3.825V81.1a9.864,9.864,0,0,1,2.888-1.992,7.575,7.575,0,0,1,3.072-.671q0.672,0,1.15.031a4.3,4.3,0,0,1,.905.152h0.2V74.639Zm11.21,9.371,9.337-9.493h-4.76l-8.992,9.595V65.594h-3.824v31.63h3.824V87.731l1.5-1.464,8.484,10.957h5.024Zm22.509,13.233a8.684,8.684,0,0,0,2.757-1.545,6.123,6.123,0,0,0,1.7-2.246,6.793,6.793,0,0,0,.579-2.775,5.872,5.872,0,0,0-1.271-3.984,7.166,7.166,0,0,0-3.794-2.094q-1.16-.284-2.207-0.5t-1.9-.437a5.958,5.958,0,0,1-2.482-1.148,2.725,2.725,0,0,1-.773-2.124,2.622,2.622,0,0,1,1.3-2.4,6.031,6.031,0,0,1,3.194-.793,10.332,10.332,0,0,1,3.631.671,11.96,11.96,0,0,1,3.265,1.829h0.2V75.615a13.341,13.341,0,0,0-3.214-1.179,15.976,15.976,0,0,0-3.8-.468,9.323,9.323,0,0,0-6.164,1.931,6.629,6.629,0,0,0-1.139,8.812,6.941,6.941,0,0,0,3.784,2.328q1,0.285,2.176.529t1.913,0.427a6.125,6.125,0,0,1,2.634,1.159,2.672,2.672,0,0,1,.743,2.053A3.161,3.161,0,0,1,342,92.792a3.219,3.219,0,0,1-1.027,1,4.738,4.738,0,0,1-1.546.539,9.718,9.718,0,0,1-1.953.213,8.528,8.528,0,0,1-2.431-.346A16.085,16.085,0,0,1,332.9,93.4a11.279,11.279,0,0,1-1.76-.976q-0.661-.467-1.15-0.854h-0.2v4.289a19.021,19.021,0,0,0,3.285,1.3,14.437,14.437,0,0,0,4.262.61A12,12,0,0,0,341.186,97.244Zm26.457-14.758q0-4.187-1.892-6.393a6.546,6.546,0,0,0-5.249-2.206,7.934,7.934,0,0,0-3.519.813,15.041,15.041,0,0,0-3.377,2.338V65.594h-3.824v31.63h3.824V80.27a15.175,15.175,0,0,1,2.96-1.982,6.524,6.524,0,0,1,2.94-.762,5.165,5.165,0,0,1,2.278.417,2.982,2.982,0,0,1,1.3,1.27,6.2,6.2,0,0,1,.58,2.165,26.022,26.022,0,0,1,.152,2.917V97.224h3.825V82.486Zm21.3-5.458a10.2,10.2,0,0,0-14.738.01q-2.8,3.151-2.8,8.843,0,5.53,2.715,8.751a9.232,9.232,0,0,0,7.456,3.222,9.356,9.356,0,0,0,7.364-3.12q2.767-3.12,2.767-8.853Q391.709,80.169,388.942,77.028Zm-2.8,15.368a5.908,5.908,0,0,1-9.175-.041q-1.617-2.205-1.617-6.474,0-4.411,1.617-6.556a5.99,5.99,0,0,1,9.185,0q1.608,2.145,1.608,6.556Q387.763,90.231,386.145,92.4ZM412.51,76.977a7.046,7.046,0,0,0-6.093-3.09,8.412,8.412,0,0,0-3.794.864A14.072,14.072,0,0,0,399.46,76.9V74.517h-3.825V105.6h3.825V96.085a11.72,11.72,0,0,0,2.665,1.2,10.538,10.538,0,0,0,2.99.386,8.457,8.457,0,0,0,6.866-3.364q2.716-3.364,2.716-9.036A14.1,14.1,0,0,0,412.51,76.977ZM409.1,92.06a5.46,5.46,0,0,1-4.618,2.175,10.247,10.247,0,0,1-2.452-.264,13.544,13.544,0,0,1-2.573-1V80.108a13.6,13.6,0,0,1,2.879-1.86,7.227,7.227,0,0,1,3.143-.722,4.3,4.3,0,0,1,4.028,2.145,12.129,12.129,0,0,1,1.24,6.027Q410.75,89.886,409.1,92.06Z" transform="translate(-0.594)"/>
</svg>
