<svg width="252" height="32" viewBox="0 0 252 32" fill="none" xmlns="http://www.w3.org/2000/svg">
  <path d="M7.02734 8.39941H2.71387V11.9268H7.72461V13H1.40137V3.04688H7.65625V4.12695H2.71387V7.32617H7.02734V8.39941ZM9.85059 13V3.04688H13.1045C14.1846 3.04688 14.9958 3.27018 15.5381 3.7168C16.085 4.16341 16.3584 4.82422 16.3584 5.69922C16.3584 6.16406 16.2262 6.5765 15.9619 6.93652C15.6976 7.29199 15.3376 7.56771 14.8818 7.76367C15.4196 7.91406 15.8434 8.20117 16.1533 8.625C16.4678 9.04427 16.625 9.54557 16.625 10.1289C16.625 11.0221 16.3356 11.724 15.7568 12.2344C15.1781 12.7448 14.36 13 13.3027 13H9.85059ZM11.1631 8.34473V11.9268H13.3301C13.9408 11.9268 14.4215 11.7695 14.7725 11.4551C15.1279 11.1361 15.3057 10.6986 15.3057 10.1426C15.3057 8.94401 14.654 8.34473 13.3506 8.34473H11.1631ZM11.1631 7.29199H13.1455C13.7197 7.29199 14.1777 7.14844 14.5195 6.86133C14.8659 6.57422 15.0391 6.18457 15.0391 5.69238C15.0391 5.14551 14.8796 4.74902 14.5605 4.50293C14.2415 4.25228 13.7562 4.12695 13.1045 4.12695H11.1631V7.29199ZM25.2383 4.12695H20.4395V13H19.1201V3.04688H25.2383V4.12695ZM32.9766 8.39941H28.6631V11.9268H33.6738V13H27.3506V3.04688H33.6055V4.12695H28.6631V7.32617H32.9766V8.39941ZM43.4492 13H42.1299V8.39941H37.1123V13H35.7998V3.04688H37.1123V7.32617H42.1299V3.04688H43.4492V13ZM52.5479 3.04688H53.8604V13H52.5479V5.33008L47.6465 13H46.3271V3.04688H47.6465V10.7168L52.5479 3.04688ZM63.0205 3.04688H64.333V13H63.0205V5.33008L58.1191 13H56.7998V3.04688H58.1191V10.7168L63.0205 3.04688ZM62.6514 0.572266C62.6514 1.1237 62.4622 1.56803 62.084 1.90527C61.7103 2.23796 61.2181 2.4043 60.6074 2.4043C59.9967 2.4043 59.5023 2.23568 59.124 1.89844C58.7458 1.5612 58.5566 1.11914 58.5566 0.572266H59.5889C59.5889 0.891276 59.6755 1.14193 59.8486 1.32422C60.0218 1.50195 60.2747 1.59082 60.6074 1.59082C60.9264 1.59082 61.1748 1.50195 61.3525 1.32422C61.5348 1.14648 61.626 0.895833 61.626 0.572266H62.6514ZM76.8633 4.12695H72.0645V13H70.7451V3.04688H76.8633V4.12695ZM84.6016 8.39941H80.2881V11.9268H85.2988V13H78.9756V3.04688H85.2305V4.12695H80.2881V7.32617H84.6016V8.39941ZM88.7373 9.10352V13H87.4248V3.04688H91.0957C92.1849 3.04688 93.0371 3.32487 93.6523 3.88086C94.2721 4.43685 94.582 5.17285 94.582 6.08887C94.582 7.05501 94.279 7.80013 93.6729 8.32422C93.0713 8.84375 92.2077 9.10352 91.082 9.10352H88.7373ZM88.7373 8.03027H91.0957C91.7975 8.03027 92.3353 7.86621 92.709 7.53809C93.0827 7.2054 93.2695 6.72689 93.2695 6.10254C93.2695 5.51009 93.0827 5.03613 92.709 4.68066C92.3353 4.3252 91.8226 4.14062 91.1709 4.12695H88.7373V8.03027ZM101.302 10.4023H97.1318L96.1953 13H94.8418L98.6426 3.04688H99.791L103.599 13H102.252L101.302 10.4023ZM97.5283 9.32227H100.912L99.2168 4.66699L97.5283 9.32227ZM112.67 9.8418C112.547 10.8945 112.157 11.708 111.501 12.2822C110.849 12.8519 109.981 13.1367 108.896 13.1367C107.721 13.1367 106.777 12.7152 106.066 11.8721C105.36 11.029 105.007 9.90104 105.007 8.48828V7.53125C105.007 6.60612 105.171 5.79264 105.499 5.09082C105.832 4.389 106.301 3.85124 106.907 3.47754C107.513 3.09928 108.215 2.91016 109.013 2.91016C110.07 2.91016 110.918 3.20638 111.556 3.79883C112.194 4.38672 112.565 5.20247 112.67 6.24609H111.351C111.237 5.45312 110.988 4.87891 110.605 4.52344C110.227 4.16797 109.696 3.99023 109.013 3.99023C108.174 3.99023 107.516 4.30013 107.037 4.91992C106.563 5.53971 106.326 6.42155 106.326 7.56543V8.5293C106.326 9.60938 106.552 10.4684 107.003 11.1064C107.454 11.7445 108.085 12.0635 108.896 12.0635C109.626 12.0635 110.184 11.8994 110.571 11.5713C110.963 11.2386 111.223 10.6621 111.351 9.8418H112.67ZM121.235 3.04688H122.548V13H121.235V5.33008L116.334 13H115.015V3.04688H116.334V10.7168L121.235 3.04688ZM127.128 3.04688L130.382 11.168L133.636 3.04688H135.338V13H134.025V9.12402L134.148 4.94043L130.881 13H129.876L126.615 4.96094L126.745 9.12402V13H125.433V3.04688H127.128ZM145.804 8.34473C145.804 9.31999 145.64 10.1722 145.312 10.9014C144.983 11.626 144.519 12.1797 143.917 12.5625C143.315 12.9453 142.614 13.1367 141.812 13.1367C141.028 13.1367 140.333 12.9453 139.727 12.5625C139.12 12.1751 138.649 11.626 138.312 10.915C137.979 10.1995 137.808 9.3724 137.799 8.43359V7.71582C137.799 6.75879 137.965 5.91341 138.298 5.17969C138.631 4.44596 139.1 3.88542 139.706 3.49805C140.317 3.10612 141.014 2.91016 141.798 2.91016C142.595 2.91016 143.297 3.10384 143.903 3.49121C144.514 3.87402 144.983 4.43229 145.312 5.16602C145.64 5.89518 145.804 6.74512 145.804 7.71582V8.34473ZM144.498 7.70215C144.498 6.52181 144.261 5.61719 143.787 4.98828C143.313 4.35482 142.65 4.03809 141.798 4.03809C140.968 4.03809 140.314 4.35482 139.836 4.98828C139.362 5.61719 139.118 6.49219 139.104 7.61328V8.34473C139.104 9.48861 139.344 10.3887 139.822 11.0449C140.305 11.6966 140.968 12.0225 141.812 12.0225C142.659 12.0225 143.315 11.7148 143.78 11.0996C144.245 10.4798 144.484 9.59342 144.498 8.44043V7.70215ZM148.265 13V3.04688H151.519C152.599 3.04688 153.41 3.27018 153.952 3.7168C154.499 4.16341 154.772 4.82422 154.772 5.69922C154.772 6.16406 154.64 6.5765 154.376 6.93652C154.112 7.29199 153.752 7.56771 153.296 7.76367C153.834 7.91406 154.257 8.20117 154.567 8.625C154.882 9.04427 155.039 9.54557 155.039 10.1289C155.039 11.0221 154.75 11.724 154.171 12.2344C153.592 12.7448 152.774 13 151.717 13H148.265ZM149.577 8.34473V11.9268H151.744C152.355 11.9268 152.836 11.7695 153.187 11.4551C153.542 11.1361 153.72 10.6986 153.72 10.1426C153.72 8.94401 153.068 8.34473 151.765 8.34473H149.577ZM149.577 7.29199H151.56C152.134 7.29199 152.592 7.14844 152.934 6.86133C153.28 6.57422 153.453 6.18457 153.453 5.69238C153.453 5.14551 153.294 4.74902 152.975 4.50293C152.656 4.25228 152.17 4.12695 151.519 4.12695H149.577V7.29199ZM167.228 3.04688H168.54V13H167.228V5.33008L162.326 13H161.007V3.04688H162.326V10.7168L167.228 3.04688ZM182.499 13H181.18V4.12695H176.271V13H174.959V3.04688H182.499V13ZM190.88 10.4023H186.71L185.773 13H184.42L188.221 3.04688H189.369L193.177 13H191.83L190.88 10.4023ZM187.106 9.32227H190.49L188.795 4.66699L187.106 9.32227ZM196.321 9.10352V13H195.009V3.04688H198.68C199.769 3.04688 200.621 3.32487 201.236 3.88086C201.856 4.43685 202.166 5.17285 202.166 6.08887C202.166 7.05501 201.863 7.80013 201.257 8.32422C200.655 8.84375 199.792 9.10352 198.666 9.10352H196.321ZM196.321 8.03027H198.68C199.382 8.03027 199.919 7.86621 200.293 7.53809C200.667 7.2054 200.854 6.72689 200.854 6.10254C200.854 5.51009 200.667 5.03613 200.293 4.68066C199.919 4.3252 199.407 4.14062 198.755 4.12695H196.321V8.03027ZM211.21 4.12695H208.011V13H206.705V4.12695H203.513V3.04688H211.21V4.12695ZM220.828 13H219.509V8.39941H214.491V13H213.179V3.04688H214.491V7.32617H219.509V3.04688H220.828V13ZM229.277 8.39941H224.964V11.9268H229.975V13H223.651V3.04688H229.906V4.12695H224.964V7.32617H229.277V8.39941ZM233.413 9.10352V13H232.101V3.04688H235.771C236.861 3.04688 237.713 3.32487 238.328 3.88086C238.948 4.43685 239.258 5.17285 239.258 6.08887C239.258 7.05501 238.955 7.80013 238.349 8.32422C237.747 8.84375 236.883 9.10352 235.758 9.10352H233.413ZM233.413 8.03027H235.771C236.473 8.03027 237.011 7.86621 237.385 7.53809C237.758 7.2054 237.945 6.72689 237.945 6.10254C237.945 5.51009 237.758 5.03613 237.385 4.68066C237.011 4.3252 236.498 4.14062 235.847 4.12695H233.413V8.03027ZM242.799 7.10742H245.273C246.312 7.12109 247.124 7.3877 247.707 7.90723C248.29 8.42676 248.582 9.13314 248.582 10.0264C248.582 10.9242 248.288 11.6396 247.7 12.1729C247.112 12.7061 246.31 12.9818 245.294 13H241.486V3.04688H242.799V7.10742ZM242.799 8.1875V11.9268H245.198C245.85 11.9268 246.356 11.7536 246.716 11.4072C247.08 11.0609 247.263 10.596 247.263 10.0127C247.263 9.45215 247.087 9.01009 246.736 8.68652C246.39 8.36296 245.896 8.19661 245.253 8.1875H242.799ZM251.098 13H249.785V3.04688H251.098V13Z" fill="black"/>
  <path d="M4.73438 29C4.67188 28.875 4.62109 28.6523 4.58203 28.332C4.07812 28.8555 3.47656 29.1172 2.77734 29.1172C2.15234 29.1172 1.63867 28.9414 1.23633 28.5898C0.837891 28.2344 0.638672 27.7852 0.638672 27.2422C0.638672 26.582 0.888672 26.0703 1.38867 25.707C1.89258 25.3398 2.59961 25.1562 3.50977 25.1562H4.56445V24.6582C4.56445 24.2793 4.45117 23.9785 4.22461 23.7559C3.99805 23.5293 3.66406 23.416 3.22266 23.416C2.83594 23.416 2.51172 23.5137 2.25 23.709C1.98828 23.9043 1.85742 24.1406 1.85742 24.418H0.767578C0.767578 24.1016 0.878906 23.7969 1.10156 23.5039C1.32812 23.207 1.63281 22.9727 2.01562 22.8008C2.40234 22.6289 2.82617 22.543 3.28711 22.543C4.01758 22.543 4.58984 22.7266 5.00391 23.0938C5.41797 23.457 5.63281 23.959 5.64844 24.5996V27.5176C5.64844 28.0996 5.72266 28.5625 5.87109 28.9062V29H4.73438ZM2.93555 28.1738C3.27539 28.1738 3.59766 28.0859 3.90234 27.9102C4.20703 27.7344 4.42773 27.5059 4.56445 27.2246V25.9238H3.71484C2.38672 25.9238 1.72266 26.3125 1.72266 27.0898C1.72266 27.4297 1.83594 27.6953 2.0625 27.8867C2.28906 28.0781 2.58008 28.1738 2.93555 28.1738ZM12.7031 25.9004C12.7031 26.8652 12.4824 27.6426 12.041 28.2324C11.5996 28.8223 11.002 29.1172 10.248 29.1172C9.47852 29.1172 8.87305 28.873 8.43164 28.3848V31.4375H7.34766V22.6602H8.33789L8.39062 23.3633C8.83203 22.8164 9.44531 22.543 10.2305 22.543C10.9922 22.543 11.5938 22.8301 12.0352 23.4043C12.4805 23.9785 12.7031 24.7773 12.7031 25.8008V25.9004ZM11.6191 25.7773C11.6191 25.0625 11.4668 24.498 11.1621 24.084C10.8574 23.6699 10.4395 23.4629 9.9082 23.4629C9.25195 23.4629 8.75977 23.7539 8.43164 24.3359V27.3652C8.75586 27.9434 9.25195 28.2324 9.91992 28.2324C10.4395 28.2324 10.8516 28.0273 11.1562 27.6172C11.4648 27.2031 11.6191 26.5898 11.6191 25.7773ZM16.1191 24.9746L17.5254 22.6602H18.791L16.7168 25.7949L18.8555 29H17.6016L16.1367 26.627L14.6719 29H13.4121L15.5508 25.7949L13.4766 22.6602H14.7305L16.1191 24.9746ZM24.0469 22.6602H25.1309V29H24.0469V24.377L21.123 29H20.0391V22.6602H21.123V27.2891L24.0469 22.6602ZM31.582 23.5391H29.4551V29H28.3711V23.5391H26.2852V22.6602H31.582V23.5391ZM34.7988 29.1172C33.9395 29.1172 33.2402 28.8359 32.7012 28.2734C32.1621 27.707 31.8926 26.9512 31.8926 26.0059V25.8066C31.8926 25.1777 32.0117 24.6172 32.25 24.125C32.4922 23.6289 32.8281 23.2422 33.2578 22.9648C33.6914 22.6836 34.1602 22.543 34.6641 22.543C35.4883 22.543 36.1289 22.8145 36.5859 23.3574C37.043 23.9004 37.2715 24.6777 37.2715 25.6895V26.1406H32.9766C32.9922 26.7656 33.1738 27.2715 33.5215 27.6582C33.873 28.041 34.3184 28.2324 34.8574 28.2324C35.2402 28.2324 35.5645 28.1543 35.8301 27.998C36.0957 27.8418 36.3281 27.6348 36.5273 27.377L37.1895 27.8926C36.6582 28.709 35.8613 29.1172 34.7988 29.1172ZM34.6641 23.4336C34.2266 23.4336 33.8594 23.5938 33.5625 23.9141C33.2656 24.2305 33.082 24.6758 33.0117 25.25H36.1875V25.168C36.1562 24.6172 36.0078 24.1914 35.7422 23.8906C35.4766 23.5859 35.1172 23.4336 34.6641 23.4336ZM40.5059 26.2988H39.7148V29H38.625V22.6602H39.7148V25.3438H40.4238L42.5566 22.6602H43.8691L41.3613 25.707L44.0801 29H42.7031L40.5059 26.2988ZM49.7227 23.5391H47.5957V29H46.5117V23.5391H44.4258V22.6602H49.7227V23.5391ZM52.9219 27.4121L54.3984 22.6602H55.5586L53.0098 29.9785C52.6152 31.0332 51.9883 31.5605 51.1289 31.5605L50.9238 31.543L50.5195 31.4668V30.5879L50.8125 30.6113C51.1797 30.6113 51.4648 30.5371 51.668 30.3887C51.875 30.2402 52.0449 29.9688 52.1777 29.5742L52.418 28.9297L50.1562 22.6602H51.3398L52.9219 27.4121ZM61.8867 25.9004C61.8867 26.8652 61.666 27.6426 61.2246 28.2324C60.7832 28.8223 60.1855 29.1172 59.4316 29.1172C58.6621 29.1172 58.0566 28.873 57.6152 28.3848V31.4375H56.5312V22.6602H57.5215L57.5742 23.3633C58.0156 22.8164 58.6289 22.543 59.4141 22.543C60.1758 22.543 60.7773 22.8301 61.2188 23.4043C61.6641 23.9785 61.8867 24.7773 61.8867 25.8008V25.9004ZM60.8027 25.7773C60.8027 25.0625 60.6504 24.498 60.3457 24.084C60.041 23.6699 59.623 23.4629 59.0918 23.4629C58.4355 23.4629 57.9434 23.7539 57.6152 24.3359V27.3652C57.9395 27.9434 58.4355 28.2324 59.1035 28.2324C59.623 28.2324 60.0352 28.0273 60.3398 27.6172C60.6484 27.2031 60.8027 26.5898 60.8027 25.7773ZM68.4492 29H67.3652V26.293H64.4531V29H63.3633V22.6602H64.4531V25.4082H67.3652V22.6602H68.4492V29ZM74.1094 29C74.0469 28.875 73.9961 28.6523 73.957 28.332C73.4531 28.8555 72.8516 29.1172 72.1523 29.1172C71.5273 29.1172 71.0137 28.9414 70.6113 28.5898C70.2129 28.2344 70.0137 27.7852 70.0137 27.2422C70.0137 26.582 70.2637 26.0703 70.7637 25.707C71.2676 25.3398 71.9746 25.1562 72.8848 25.1562H73.9395V24.6582C73.9395 24.2793 73.8262 23.9785 73.5996 23.7559C73.373 23.5293 73.0391 23.416 72.5977 23.416C72.2109 23.416 71.8867 23.5137 71.625 23.709C71.3633 23.9043 71.2324 24.1406 71.2324 24.418H70.1426C70.1426 24.1016 70.2539 23.7969 70.4766 23.5039C70.7031 23.207 71.0078 22.9727 71.3906 22.8008C71.7773 22.6289 72.2012 22.543 72.6621 22.543C73.3926 22.543 73.9648 22.7266 74.3789 23.0938C74.793 23.457 75.0078 23.959 75.0234 24.5996V27.5176C75.0234 28.0996 75.0977 28.5625 75.2461 28.9062V29H74.1094ZM72.3105 28.1738C72.6504 28.1738 72.9727 28.0859 73.2773 27.9102C73.582 27.7344 73.8027 27.5059 73.9395 27.2246V25.9238H73.0898C71.7617 25.9238 71.0977 26.3125 71.0977 27.0898C71.0977 27.4297 71.2109 27.6953 71.4375 27.8867C71.6641 28.0781 71.9551 28.1738 72.3105 28.1738ZM81.5684 22.6602V29H80.4785V26.5332H78.8438L77.3496 29H76.1777L77.7715 26.3691C77.3652 26.2207 77.0527 25.9922 76.834 25.6836C76.6191 25.3711 76.5117 25.0078 76.5117 24.5938C76.5117 24.0156 76.7285 23.5508 77.1621 23.1992C77.5957 22.8438 78.1758 22.6641 78.9023 22.6602H81.5684ZM77.6016 24.6055C77.6016 24.9141 77.707 25.1641 77.918 25.3555C78.1289 25.543 78.4082 25.6387 78.7559 25.6426H80.4785V23.5391H78.9199C78.5176 23.5391 78.1973 23.6387 77.959 23.8379C77.7207 24.0332 77.6016 24.2891 77.6016 24.6055ZM89.9355 27.5645L92.0918 22.6602H93.4453V29H92.3613V24.3887L90.3105 29H89.5605L87.4688 24.2891V29H86.3848V22.6602H87.791L89.9355 27.5645ZM99.1055 29C99.043 28.875 98.9922 28.6523 98.9531 28.332C98.4492 28.8555 97.8477 29.1172 97.1484 29.1172C96.5234 29.1172 96.0098 28.9414 95.6074 28.5898C95.209 28.2344 95.0098 27.7852 95.0098 27.2422C95.0098 26.582 95.2598 26.0703 95.7598 25.707C96.2637 25.3398 96.9707 25.1562 97.8809 25.1562H98.9355V24.6582C98.9355 24.2793 98.8223 23.9785 98.5957 23.7559C98.3691 23.5293 98.0352 23.416 97.5938 23.416C97.207 23.416 96.8828 23.5137 96.6211 23.709C96.3594 23.9043 96.2285 24.1406 96.2285 24.418H95.1387C95.1387 24.1016 95.25 23.7969 95.4727 23.5039C95.6992 23.207 96.0039 22.9727 96.3867 22.8008C96.7734 22.6289 97.1973 22.543 97.6582 22.543C98.3887 22.543 98.9609 22.7266 99.375 23.0938C99.7891 23.457 100.004 23.959 100.02 24.5996V27.5176C100.02 28.0996 100.094 28.5625 100.242 28.9062V29H99.1055ZM97.3066 28.1738C97.6465 28.1738 97.9688 28.0859 98.2734 27.9102C98.5781 27.7344 98.7988 27.5059 98.9355 27.2246V25.9238H98.0859C96.7578 25.9238 96.0938 26.3125 96.0938 27.0898C96.0938 27.4297 96.207 27.6953 96.4336 27.8867C96.6602 28.0781 96.9512 28.1738 97.3066 28.1738ZM104.262 28.2324C104.648 28.2324 104.986 28.1152 105.275 27.8809C105.564 27.6465 105.725 27.3535 105.756 27.002H106.781C106.762 27.3652 106.637 27.7109 106.406 28.0391C106.176 28.3672 105.867 28.6289 105.48 28.8242C105.098 29.0195 104.691 29.1172 104.262 29.1172C103.398 29.1172 102.711 28.8301 102.199 28.2559C101.691 27.6777 101.438 26.8887 101.438 25.8887V25.707C101.438 25.0898 101.551 24.541 101.777 24.0605C102.004 23.5801 102.328 23.207 102.75 22.9414C103.176 22.6758 103.678 22.543 104.256 22.543C104.967 22.543 105.557 22.7559 106.025 23.1816C106.498 23.6074 106.75 24.1602 106.781 24.8398H105.756C105.725 24.4297 105.568 24.0938 105.287 23.832C105.01 23.5664 104.666 23.4336 104.256 23.4336C103.705 23.4336 103.277 23.6328 102.973 24.0312C102.672 24.4258 102.521 24.998 102.521 25.748V25.9531C102.521 26.6836 102.672 27.2461 102.973 27.6406C103.273 28.0352 103.703 28.2324 104.262 28.2324ZM112.711 23.5391H110.584V29H109.5V23.5391H107.414V22.6602H112.711V23.5391ZM115.928 29.1172C115.068 29.1172 114.369 28.8359 113.83 28.2734C113.291 27.707 113.021 26.9512 113.021 26.0059V25.8066C113.021 25.1777 113.141 24.6172 113.379 24.125C113.621 23.6289 113.957 23.2422 114.387 22.9648C114.82 22.6836 115.289 22.543 115.793 22.543C116.617 22.543 117.258 22.8145 117.715 23.3574C118.172 23.9004 118.4 24.6777 118.4 25.6895V26.1406H114.105C114.121 26.7656 114.303 27.2715 114.65 27.6582C115.002 28.041 115.447 28.2324 115.986 28.2324C116.369 28.2324 116.693 28.1543 116.959 27.998C117.225 27.8418 117.457 27.6348 117.656 27.377L118.318 27.8926C117.787 28.709 116.99 29.1172 115.928 29.1172ZM115.793 23.4336C115.355 23.4336 114.988 23.5938 114.691 23.9141C114.395 24.2305 114.211 24.6758 114.141 25.25H117.316V25.168C117.285 24.6172 117.137 24.1914 116.871 23.8906C116.605 23.5859 116.246 23.4336 115.793 23.4336ZM125.016 25.9004C125.016 26.8652 124.795 27.6426 124.354 28.2324C123.912 28.8223 123.314 29.1172 122.561 29.1172C121.791 29.1172 121.186 28.873 120.744 28.3848V31.4375H119.66V22.6602H120.65L120.703 23.3633C121.145 22.8164 121.758 22.543 122.543 22.543C123.305 22.543 123.906 22.8301 124.348 23.4043C124.793 23.9785 125.016 24.7773 125.016 25.8008V25.9004ZM123.932 25.7773C123.932 25.0625 123.779 24.498 123.475 24.084C123.17 23.6699 122.752 23.4629 122.221 23.4629C121.564 23.4629 121.072 23.7539 120.744 24.3359V27.3652C121.068 27.9434 121.564 28.2324 122.232 28.2324C122.752 28.2324 123.164 28.0273 123.469 27.6172C123.777 27.2031 123.932 26.5898 123.932 25.7773ZM128.941 28.2324C129.328 28.2324 129.666 28.1152 129.955 27.8809C130.244 27.6465 130.404 27.3535 130.436 27.002H131.461C131.441 27.3652 131.316 27.7109 131.086 28.0391C130.855 28.3672 130.547 28.6289 130.16 28.8242C129.777 29.0195 129.371 29.1172 128.941 29.1172C128.078 29.1172 127.391 28.8301 126.879 28.2559C126.371 27.6777 126.117 26.8887 126.117 25.8887V25.707C126.117 25.0898 126.23 24.541 126.457 24.0605C126.684 23.5801 127.008 23.207 127.43 22.9414C127.855 22.6758 128.357 22.543 128.936 22.543C129.646 22.543 130.236 22.7559 130.705 23.1816C131.178 23.6074 131.43 24.1602 131.461 24.8398H130.436C130.404 24.4297 130.248 24.0938 129.967 23.832C129.689 23.5664 129.346 23.4336 128.936 23.4336C128.385 23.4336 127.957 23.6328 127.652 24.0312C127.352 24.4258 127.201 24.998 127.201 25.748V25.9531C127.201 26.6836 127.352 27.2461 127.652 27.6406C127.953 28.0352 128.383 28.2324 128.941 28.2324ZM134.654 26.2988H133.863V29H132.773V22.6602H133.863V25.3438H134.572L136.705 22.6602H138.018L135.51 25.707L138.229 29H136.852L134.654 26.2988ZM143.074 29C143.012 28.875 142.961 28.6523 142.922 28.332C142.418 28.8555 141.816 29.1172 141.117 29.1172C140.492 29.1172 139.979 28.9414 139.576 28.5898C139.178 28.2344 138.979 27.7852 138.979 27.2422C138.979 26.582 139.229 26.0703 139.729 25.707C140.232 25.3398 140.939 25.1562 141.85 25.1562H142.904V24.6582C142.904 24.2793 142.791 23.9785 142.564 23.7559C142.338 23.5293 142.004 23.416 141.562 23.416C141.176 23.416 140.852 23.5137 140.59 23.709C140.328 23.9043 140.197 24.1406 140.197 24.418H139.107C139.107 24.1016 139.219 23.7969 139.441 23.5039C139.668 23.207 139.973 22.9727 140.355 22.8008C140.742 22.6289 141.166 22.543 141.627 22.543C142.357 22.543 142.93 22.7266 143.344 23.0938C143.758 23.457 143.973 23.959 143.988 24.5996V27.5176C143.988 28.0996 144.062 28.5625 144.211 28.9062V29H143.074ZM141.275 28.1738C141.615 28.1738 141.938 28.0859 142.242 27.9102C142.547 27.7344 142.768 27.5059 142.904 27.2246V25.9238H142.055C140.727 25.9238 140.062 26.3125 140.062 27.0898C140.062 27.4297 140.176 27.6953 140.402 27.8867C140.629 28.0781 140.92 28.1738 141.275 28.1738ZM150.533 22.6602V29H149.443V26.5332H147.809L146.314 29H145.143L146.736 26.3691C146.33 26.2207 146.018 25.9922 145.799 25.6836C145.584 25.3711 145.477 25.0078 145.477 24.5938C145.477 24.0156 145.693 23.5508 146.127 23.1992C146.561 22.8438 147.141 22.6641 147.867 22.6602H150.533ZM146.566 24.6055C146.566 24.9141 146.672 25.1641 146.883 25.3555C147.094 25.543 147.373 25.6387 147.721 25.6426H149.443V23.5391H147.885C147.482 23.5391 147.162 23.6387 146.924 23.8379C146.686 24.0332 146.566 24.2891 146.566 24.6055Z" fill="black"/>
</svg>
