<svg width="26" height="26" viewBox="0 0 26 26" fill="none" xmlns="http://www.w3.org/2000/svg">
  <mask id="path-1-inside-1" fill="white">
    <path fill-rule="evenodd" clip-rule="evenodd" d="M6 0H0V6V26H6V6H26V0H6ZM10 10H26V16H10V10ZM26 20H10V26H26V20Z"/>
  </mask>
  <path d="M0 0V-1H-1V0H0ZM0 26H-1V27H0V26ZM6 26V27H7V26H6ZM6 6V5H5V6H6ZM26 6V7H27V6H26ZM26 0H27V-1H26V0ZM26 10H27V9H26V10ZM10 10V9H9V10H10ZM26 16V17H27V16H26ZM10 16H9V17H10V16ZM10 20V19H9V20H10ZM26 20H27V19H26V20ZM10 26H9V27H10V26ZM26 26V27H27V26H26ZM0 1H6V-1H0V1ZM1 6V0H-1V6H1ZM1 26V6H-1V26H1ZM6 25H0V27H6V25ZM5 6V26H7V6H5ZM26 5H6V7H26V5ZM25 0V6H27V0H25ZM6 1H26V-1H6V1ZM26 9H10V11H26V9ZM27 16V10H25V16H27ZM10 17H26V15H10V17ZM9 10V16H11V10H9ZM10 21H26V19H10V21ZM11 26V20H9V26H11ZM26 25H10V27H26V25ZM25 20V26H27V20H25Z" fill="black" mask="url(#path-1-inside-1)"/>
</svg>
