<svg width="250" height="30" viewBox="0 0 250 30" fill="none" xmlns="http://www.w3.org/2000/svg">
  <path d="M7.02734 6.39941H2.71387V9.92676H7.72461V11H1.40137V1.04688H7.65625V2.12695H2.71387V5.32617H7.02734V6.39941ZM13.1455 9.25684L15.9893 1.04688H17.4248L13.7334 11H12.5713L8.88672 1.04688H10.3154L13.1455 9.25684ZM26.5098 9.69434C26.1725 10.1774 25.7008 10.5397 25.0947 10.7812C24.4932 11.0182 23.7913 11.1367 22.9893 11.1367C22.1781 11.1367 21.458 10.9476 20.8291 10.5693C20.2002 10.1865 19.7126 9.64421 19.3662 8.94238C19.0244 8.24056 18.849 7.42708 18.8398 6.50195V5.63379C18.8398 4.13444 19.1885 2.97233 19.8857 2.14746C20.5876 1.32259 21.5719 0.910156 22.8389 0.910156C23.8779 0.910156 24.7142 1.17676 25.3477 1.70996C25.9811 2.23861 26.3685 2.99056 26.5098 3.96582H25.1973C24.9512 2.64876 24.1673 1.99023 22.8457 1.99023C21.9661 1.99023 21.2985 2.30013 20.8428 2.91992C20.3916 3.53516 20.1637 4.42839 20.1592 5.59961V6.41309C20.1592 7.52962 20.4144 8.41829 20.9248 9.0791C21.4352 9.73535 22.1257 10.0635 22.9961 10.0635C23.4883 10.0635 23.9189 10.0088 24.2881 9.89941C24.6572 9.79004 24.9626 9.60547 25.2041 9.3457V7.11035H22.9004V6.04395H26.5098V9.69434ZM34.8223 6.39941H30.5088V9.92676H35.5195V11H29.1963V1.04688H35.4512V2.12695H30.5088V5.32617H34.8223V6.39941ZM45.2949 11H43.9756L38.9648 3.33008V11H37.6455V1.04688H38.9648L43.9893 8.75098V1.04688H45.2949V11ZM50.9619 6.04395L53.5596 1.04688H55.0498L51.6182 7.28809V11H50.3057V7.28809L46.874 1.04688H48.3779L50.9619 6.04395ZM67.6484 9.69434C67.3112 10.1774 66.8395 10.5397 66.2334 10.7812C65.6318 11.0182 64.93 11.1367 64.1279 11.1367C63.3167 11.1367 62.5967 10.9476 61.9678 10.5693C61.3389 10.1865 60.8512 9.64421 60.5049 8.94238C60.1631 8.24056 59.9876 7.42708 59.9785 6.50195V5.63379C59.9785 4.13444 60.3271 2.97233 61.0244 2.14746C61.7262 1.32259 62.7106 0.910156 63.9775 0.910156C65.0166 0.910156 65.8529 1.17676 66.4863 1.70996C67.1198 2.23861 67.5072 2.99056 67.6484 3.96582H66.3359C66.0898 2.64876 65.306 1.99023 63.9844 1.99023C63.1048 1.99023 62.4372 2.30013 61.9814 2.91992C61.5303 3.53516 61.3024 4.42839 61.2979 5.59961V6.41309C61.2979 7.52962 61.5531 8.41829 62.0635 9.0791C62.5739 9.73535 63.2643 10.0635 64.1348 10.0635C64.627 10.0635 65.0576 10.0088 65.4268 9.89941C65.7959 9.79004 66.1012 9.60547 66.3428 9.3457V7.11035H64.0391V6.04395H67.6484V9.69434ZM75.9609 6.39941H71.6475V9.92676H76.6582V11H70.335V1.04688H76.5898V2.12695H71.6475V5.32617H75.9609V6.39941ZM82.4346 6.97363H80.0967V11H78.7773V1.04688H82.0723C83.1934 1.04688 84.0547 1.30208 84.6562 1.8125C85.2624 2.32292 85.5654 3.06576 85.5654 4.04102C85.5654 4.66081 85.3968 5.20085 85.0596 5.66113C84.7269 6.12142 84.262 6.46549 83.665 6.69336L86.0029 10.918V11H84.5947L82.4346 6.97363ZM80.0967 5.90039H82.1133C82.765 5.90039 83.2822 5.73177 83.665 5.39453C84.0524 5.05729 84.2461 4.60612 84.2461 4.04102C84.2461 3.42578 84.0615 2.9541 83.6924 2.62598C83.3278 2.29785 82.7992 2.13151 82.1064 2.12695H80.0967V5.90039ZM93.3994 8.40234H89.2295L88.293 11H86.9395L90.7402 1.04688H91.8887L95.6963 11H94.3496L93.3994 8.40234ZM89.626 7.32227H93.0098L91.3145 2.66699L89.626 7.32227ZM100.461 6.56348C99.3353 6.23991 98.515 5.84342 98 5.37402C97.4896 4.90007 97.2344 4.31673 97.2344 3.62402C97.2344 2.84017 97.5465 2.19303 98.1709 1.68262C98.7998 1.16764 99.6156 0.910156 100.618 0.910156C101.302 0.910156 101.91 1.04232 102.443 1.30664C102.981 1.57096 103.396 1.93555 103.688 2.40039C103.984 2.86523 104.132 3.37337 104.132 3.9248H102.812C102.812 3.32324 102.621 2.85156 102.238 2.50977C101.855 2.16341 101.315 1.99023 100.618 1.99023C99.971 1.99023 99.4652 2.13379 99.1006 2.4209C98.7406 2.70345 98.5605 3.09766 98.5605 3.60352C98.5605 4.00911 98.7314 4.35319 99.0732 4.63574C99.4196 4.91374 100.005 5.16895 100.83 5.40137C101.66 5.63379 102.307 5.89128 102.771 6.17383C103.241 6.45182 103.587 6.77767 103.811 7.15137C104.038 7.52507 104.152 7.96484 104.152 8.4707C104.152 9.27734 103.838 9.92448 103.209 10.4121C102.58 10.8952 101.739 11.1367 100.687 11.1367C100.003 11.1367 99.3649 11.0068 98.7725 10.7471C98.18 10.4827 97.722 10.1227 97.3984 9.66699C97.0794 9.21126 96.9199 8.69401 96.9199 8.11523H98.2393C98.2393 8.7168 98.4603 9.19303 98.9023 9.54395C99.349 9.8903 99.9437 10.0635 100.687 10.0635C101.379 10.0635 101.91 9.9222 102.279 9.63965C102.648 9.3571 102.833 8.97201 102.833 8.48438C102.833 7.99674 102.662 7.62077 102.32 7.35645C101.979 7.08757 101.359 6.82324 100.461 6.56348ZM107.741 11H106.429V1.04688H107.741V11ZM112.335 1.04688L115.589 9.16797L118.843 1.04688H120.545V11H119.232V7.12402L119.355 2.94043L116.088 11H115.083L111.822 2.96094L111.952 7.12402V11H110.64V1.04688H112.335ZM131.011 6.34473C131.011 7.31999 130.847 8.1722 130.519 8.90137C130.19 9.62598 129.726 10.1797 129.124 10.5625C128.522 10.9453 127.821 11.1367 127.019 11.1367C126.235 11.1367 125.54 10.9453 124.934 10.5625C124.327 10.1751 123.856 9.62598 123.519 8.91504C123.186 8.19954 123.015 7.3724 123.006 6.43359V5.71582C123.006 4.75879 123.172 3.91341 123.505 3.17969C123.838 2.44596 124.307 1.88542 124.913 1.49805C125.524 1.10612 126.221 0.910156 127.005 0.910156C127.802 0.910156 128.504 1.10384 129.11 1.49121C129.721 1.87402 130.19 2.43229 130.519 3.16602C130.847 3.89518 131.011 4.74512 131.011 5.71582V6.34473ZM129.705 5.70215C129.705 4.52181 129.468 3.61719 128.994 2.98828C128.52 2.35482 127.857 2.03809 127.005 2.03809C126.175 2.03809 125.521 2.35482 125.043 2.98828C124.569 3.61719 124.325 4.49219 124.312 5.61328V6.34473C124.312 7.48861 124.551 8.38867 125.029 9.04492C125.512 9.69661 126.175 10.0225 127.019 10.0225C127.866 10.0225 128.522 9.71484 128.987 9.09961C129.452 8.47982 129.691 7.59342 129.705 6.44043V5.70215ZM136.616 9.25684L139.46 1.04688H140.896L137.204 11H136.042L132.357 1.04688H133.786L136.616 9.25684ZM151.696 8.40234H147.526L146.59 11H145.236L149.037 1.04688H150.186L153.993 11H152.646L151.696 8.40234ZM147.923 7.32227H151.307L149.611 2.66699L147.923 7.32227ZM163.475 11H162.155L157.145 3.33008V11H155.825V1.04688H157.145L162.169 8.75098V1.04688H163.475V11ZM166.298 11V1.04688H169.107C169.973 1.04688 170.739 1.23828 171.404 1.62109C172.07 2.00391 172.582 2.5485 172.942 3.25488C173.307 3.96126 173.492 4.77246 173.496 5.68848V6.32422C173.496 7.26302 173.314 8.08561 172.949 8.79199C172.589 9.49837 172.072 10.0407 171.397 10.4189C170.728 10.7972 169.946 10.9909 169.053 11H166.298ZM167.61 2.12695V9.92676H168.991C170.003 9.92676 170.789 9.6123 171.35 8.9834C171.915 8.35449 172.197 7.45898 172.197 6.29688V5.71582C172.197 4.58561 171.931 3.70833 171.397 3.08398C170.869 2.45508 170.117 2.13607 169.142 2.12695H167.61ZM180.763 7.10352V11H179.45V1.04688H183.121C184.21 1.04688 185.062 1.32487 185.678 1.88086C186.298 2.43685 186.607 3.17285 186.607 4.08887C186.607 5.05501 186.304 5.80013 185.698 6.32422C185.097 6.84375 184.233 7.10352 183.107 7.10352H180.763ZM180.763 6.03027H183.121C183.823 6.03027 184.361 5.86621 184.734 5.53809C185.108 5.2054 185.295 4.72689 185.295 4.10254C185.295 3.51009 185.108 3.03613 184.734 2.68066C184.361 2.3252 183.848 2.14062 183.196 2.12695H180.763V6.03027ZM193.327 8.40234H189.157L188.221 11H186.867L190.668 1.04688H191.816L195.624 11H194.277L193.327 8.40234ZM189.554 7.32227H192.938L191.242 2.66699L189.554 7.32227ZM201.106 6.97363H198.769V11H197.449V1.04688H200.744C201.865 1.04688 202.727 1.30208 203.328 1.8125C203.934 2.32292 204.237 3.06576 204.237 4.04102C204.237 4.66081 204.069 5.20085 203.731 5.66113C203.399 6.12142 202.934 6.46549 202.337 6.69336L204.675 10.918V11H203.267L201.106 6.97363ZM198.769 5.90039H200.785C201.437 5.90039 201.954 5.73177 202.337 5.39453C202.724 5.05729 202.918 4.60612 202.918 4.04102C202.918 3.42578 202.733 2.9541 202.364 2.62598C202 2.29785 201.471 2.13151 200.778 2.12695H198.769V5.90039ZM212.905 2.12695H209.706V11H208.4V2.12695H205.208V1.04688H212.905V2.12695ZM222.523 11H221.204L216.193 3.33008V11H214.874V1.04688H216.193L221.218 8.75098V1.04688H222.523V11ZM230.973 6.39941H226.659V9.92676H231.67V11H225.347V1.04688H231.602V2.12695H226.659V5.32617H230.973V6.39941ZM237.446 6.97363H235.108V11H233.789V1.04688H237.084C238.205 1.04688 239.066 1.30208 239.668 1.8125C240.274 2.32292 240.577 3.06576 240.577 4.04102C240.577 4.66081 240.409 5.20085 240.071 5.66113C239.739 6.12142 239.274 6.46549 238.677 6.69336L241.015 10.918V11H239.606L237.446 6.97363ZM235.108 5.90039H237.125C237.777 5.90039 238.294 5.73177 238.677 5.39453C239.064 5.05729 239.258 4.60612 239.258 4.04102C239.258 3.42578 239.073 2.9541 238.704 2.62598C238.34 2.29785 237.811 2.13151 237.118 2.12695H235.108V5.90039ZM245.848 6.56348C244.722 6.23991 243.902 5.84342 243.387 5.37402C242.876 4.90007 242.621 4.31673 242.621 3.62402C242.621 2.84017 242.933 2.19303 243.558 1.68262C244.187 1.16764 245.002 0.910156 246.005 0.910156C246.688 0.910156 247.297 1.04232 247.83 1.30664C248.368 1.57096 248.783 1.93555 249.074 2.40039C249.37 2.86523 249.519 3.37337 249.519 3.9248H248.199C248.199 3.32324 248.008 2.85156 247.625 2.50977C247.242 2.16341 246.702 1.99023 246.005 1.99023C245.358 1.99023 244.852 2.13379 244.487 2.4209C244.127 2.70345 243.947 3.09766 243.947 3.60352C243.947 4.00911 244.118 4.35319 244.46 4.63574C244.806 4.91374 245.392 5.16895 246.217 5.40137C247.046 5.63379 247.693 5.89128 248.158 6.17383C248.628 6.45182 248.974 6.77767 249.197 7.15137C249.425 7.52507 249.539 7.96484 249.539 8.4707C249.539 9.27734 249.225 9.92448 248.596 10.4121C247.967 10.8952 247.126 11.1367 246.073 11.1367C245.39 11.1367 244.752 11.0068 244.159 10.7471C243.567 10.4827 243.109 10.1227 242.785 9.66699C242.466 9.21126 242.307 8.69401 242.307 8.11523H243.626C243.626 8.7168 243.847 9.19303 244.289 9.54395C244.736 9.8903 245.33 10.0635 246.073 10.0635C246.766 10.0635 247.297 9.9222 247.666 9.63965C248.035 9.3571 248.22 8.97201 248.22 8.48438C248.22 7.99674 248.049 7.62077 247.707 7.35645C247.365 7.08757 246.745 6.82324 245.848 6.56348Z" fill="black"/>
  <path d="M4.73438 27C4.67188 26.875 4.62109 26.6523 4.58203 26.332C4.07812 26.8555 3.47656 27.1172 2.77734 27.1172C2.15234 27.1172 1.63867 26.9414 1.23633 26.5898C0.837891 26.2344 0.638672 25.7852 0.638672 25.2422C0.638672 24.582 0.888672 24.0703 1.38867 23.707C1.89258 23.3398 2.59961 23.1562 3.50977 23.1562H4.56445V22.6582C4.56445 22.2793 4.45117 21.9785 4.22461 21.7559C3.99805 21.5293 3.66406 21.416 3.22266 21.416C2.83594 21.416 2.51172 21.5137 2.25 21.709C1.98828 21.9043 1.85742 22.1406 1.85742 22.418H0.767578C0.767578 22.1016 0.878906 21.7969 1.10156 21.5039C1.32812 21.207 1.63281 20.9727 2.01562 20.8008C2.40234 20.6289 2.82617 20.543 3.28711 20.543C4.01758 20.543 4.58984 20.7266 5.00391 21.0938C5.41797 21.457 5.63281 21.959 5.64844 22.5996V25.5176C5.64844 26.0996 5.72266 26.5625 5.87109 26.9062V27H4.73438ZM2.93555 26.1738C3.27539 26.1738 3.59766 26.0859 3.90234 25.9102C4.20703 25.7344 4.42773 25.5059 4.56445 25.2246V23.9238H3.71484C2.38672 23.9238 1.72266 24.3125 1.72266 25.0898C1.72266 25.4297 1.83594 25.6953 2.0625 25.8867C2.28906 26.0781 2.58008 26.1738 2.93555 26.1738ZM10.4121 21.6328C10.248 21.6055 10.0703 21.5918 9.87891 21.5918C9.16797 21.5918 8.68555 21.8945 8.43164 22.5V27H7.34766V20.6602H8.40234L8.41992 21.3926C8.77539 20.8262 9.2793 20.543 9.93164 20.543C10.1426 20.543 10.3027 20.5703 10.4121 20.625V21.6328ZM13.8398 26.2324C14.2266 26.2324 14.5645 26.1152 14.8535 25.8809C15.1426 25.6465 15.3027 25.3535 15.334 25.002H16.3594C16.3398 25.3652 16.2148 25.7109 15.9844 26.0391C15.7539 26.3672 15.4453 26.6289 15.0586 26.8242C14.6758 27.0195 14.2695 27.1172 13.8398 27.1172C12.9766 27.1172 12.2891 26.8301 11.7773 26.2559C11.2695 25.6777 11.0156 24.8887 11.0156 23.8887V23.707C11.0156 23.0898 11.1289 22.541 11.3555 22.0605C11.582 21.5801 11.9062 21.207 12.3281 20.9414C12.7539 20.6758 13.2559 20.543 13.834 20.543C14.5449 20.543 15.1348 20.7559 15.6035 21.1816C16.0762 21.6074 16.3281 22.1602 16.3594 22.8398H15.334C15.3027 22.4297 15.1465 22.0938 14.8652 21.832C14.5879 21.5664 14.2441 21.4336 13.834 21.4336C13.2832 21.4336 12.8555 21.6328 12.5508 22.0312C12.25 22.4258 12.0996 22.998 12.0996 23.748V23.9531C12.0996 24.6836 12.25 25.2461 12.5508 25.6406C12.8516 26.0352 13.2812 26.2324 13.8398 26.2324ZM18.7559 27H17.6719V20.6602H18.7559V27ZM17.584 18.9785C17.584 18.8027 17.6367 18.6543 17.7422 18.5332C17.8516 18.4121 18.0117 18.3516 18.2227 18.3516C18.4336 18.3516 18.5938 18.4121 18.7031 18.5332C18.8125 18.6543 18.8672 18.8027 18.8672 18.9785C18.8672 19.1543 18.8125 19.3008 18.7031 19.418C18.5938 19.5352 18.4336 19.5938 18.2227 19.5938C18.0117 19.5938 17.8516 19.5352 17.7422 19.418C17.6367 19.3008 17.584 19.1543 17.584 18.9785ZM21.9668 19.125V20.6602H23.1504V21.498H21.9668V25.4297C21.9668 25.6836 22.0195 25.875 22.125 26.0039C22.2305 26.1289 22.4102 26.1914 22.6641 26.1914C22.7891 26.1914 22.9609 26.168 23.1797 26.1211V27C22.8945 27.0781 22.6172 27.1172 22.3477 27.1172C21.8633 27.1172 21.498 26.9707 21.252 26.6777C21.0059 26.3848 20.8828 25.9688 20.8828 25.4297V21.498H19.7285V20.6602H20.8828V19.125H21.9668ZM27.0527 27.1172C26.1934 27.1172 25.4941 26.8359 24.9551 26.2734C24.416 25.707 24.1465 24.9512 24.1465 24.0059V23.8066C24.1465 23.1777 24.2656 22.6172 24.5039 22.125C24.7461 21.6289 25.082 21.2422 25.5117 20.9648C25.9453 20.6836 26.4141 20.543 26.918 20.543C27.7422 20.543 28.3828 20.8145 28.8398 21.3574C29.2969 21.9004 29.5254 22.6777 29.5254 23.6895V24.1406H25.2305C25.2461 24.7656 25.4277 25.2715 25.7754 25.6582C26.127 26.041 26.5723 26.2324 27.1113 26.2324C27.4941 26.2324 27.8184 26.1543 28.084 25.998C28.3496 25.8418 28.582 25.6348 28.7812 25.377L29.4434 25.8926C28.9121 26.709 28.1152 27.1172 27.0527 27.1172ZM26.918 21.4336C26.4805 21.4336 26.1133 21.5938 25.8164 21.9141C25.5195 22.2305 25.3359 22.6758 25.2656 23.25H28.4414V23.168C28.4102 22.6172 28.2617 22.1914 27.9961 21.8906C27.7305 21.5859 27.3711 21.4336 26.918 21.4336ZM33.3281 26.2324C33.7148 26.2324 34.0527 26.1152 34.3418 25.8809C34.6309 25.6465 34.791 25.3535 34.8223 25.002H35.8477C35.8281 25.3652 35.7031 25.7109 35.4727 26.0391C35.2422 26.3672 34.9336 26.6289 34.5469 26.8242C34.1641 27.0195 33.7578 27.1172 33.3281 27.1172C32.4648 27.1172 31.7773 26.8301 31.2656 26.2559C30.7578 25.6777 30.5039 24.8887 30.5039 23.8887V23.707C30.5039 23.0898 30.6172 22.541 30.8438 22.0605C31.0703 21.5801 31.3945 21.207 31.8164 20.9414C32.2422 20.6758 32.7441 20.543 33.3223 20.543C34.0332 20.543 34.623 20.7559 35.0918 21.1816C35.5645 21.6074 35.8164 22.1602 35.8477 22.8398H34.8223C34.791 22.4297 34.6348 22.0938 34.3535 21.832C34.0762 21.5664 33.7324 21.4336 33.3223 21.4336C32.7715 21.4336 32.3438 21.6328 32.0391 22.0312C31.7383 22.4258 31.5879 22.998 31.5879 23.748V23.9531C31.5879 24.6836 31.7383 25.2461 32.0391 25.6406C32.3398 26.0352 32.7695 26.2324 33.3281 26.2324ZM38.5371 19.125V20.6602H39.7207V21.498H38.5371V25.4297C38.5371 25.6836 38.5898 25.875 38.6953 26.0039C38.8008 26.1289 38.9805 26.1914 39.2344 26.1914C39.3594 26.1914 39.5312 26.168 39.75 26.1211V27C39.4648 27.0781 39.1875 27.1172 38.918 27.1172C38.4336 27.1172 38.0684 26.9707 37.8223 26.6777C37.5762 26.3848 37.4531 25.9688 37.4531 25.4297V21.498H36.2988V20.6602H37.4531V19.125H38.5371ZM44.9062 26.373C44.4844 26.8691 43.8652 27.1172 43.0488 27.1172C42.373 27.1172 41.8574 26.9219 41.502 26.5312C41.1504 26.1367 40.9727 25.5547 40.9688 24.7852V20.6602H42.0527V24.7559C42.0527 25.7168 42.4434 26.1973 43.2246 26.1973C44.0527 26.1973 44.6035 25.8887 44.877 25.2715V20.6602H45.9609V27H44.9297L44.9062 26.373ZM50.6777 21.6328C50.5137 21.6055 50.3359 21.5918 50.1445 21.5918C49.4336 21.5918 48.9512 21.8945 48.6973 22.5V27H47.6133V20.6602H48.668L48.6855 21.3926C49.041 20.8262 49.5449 20.543 50.1973 20.543C50.4082 20.543 50.5684 20.5703 50.6777 20.625V21.6328ZM55.3594 27C55.2969 26.875 55.2461 26.6523 55.207 26.332C54.7031 26.8555 54.1016 27.1172 53.4023 27.1172C52.7773 27.1172 52.2637 26.9414 51.8613 26.5898C51.4629 26.2344 51.2637 25.7852 51.2637 25.2422C51.2637 24.582 51.5137 24.0703 52.0137 23.707C52.5176 23.3398 53.2246 23.1562 54.1348 23.1562H55.1895V22.6582C55.1895 22.2793 55.0762 21.9785 54.8496 21.7559C54.623 21.5293 54.2891 21.416 53.8477 21.416C53.4609 21.416 53.1367 21.5137 52.875 21.709C52.6133 21.9043 52.4824 22.1406 52.4824 22.418H51.3926C51.3926 22.1016 51.5039 21.7969 51.7266 21.5039C51.9531 21.207 52.2578 20.9727 52.6406 20.8008C53.0273 20.6289 53.4512 20.543 53.9121 20.543C54.6426 20.543 55.2148 20.7266 55.6289 21.0938C56.043 21.457 56.2578 21.959 56.2734 22.5996V25.5176C56.2734 26.0996 56.3477 26.5625 56.4961 26.9062V27H55.3594ZM53.5605 26.1738C53.9004 26.1738 54.2227 26.0859 54.5273 25.9102C54.832 25.7344 55.0527 25.5059 55.1895 25.2246V23.9238H54.3398C53.0117 23.9238 52.3477 24.3125 52.3477 25.0898C52.3477 25.4297 52.4609 25.6953 52.6875 25.8867C52.9141 26.0781 53.2051 26.1738 53.5605 26.1738ZM59.1504 27H58.0664V18H59.1504V27ZM69.4805 25.5059L70.6992 20.6602H71.7832L69.9375 27H69.0586L67.5176 22.1953L66.0176 27H65.1387L63.2988 20.6602H64.377L65.625 25.4062L67.1016 20.6602H67.9746L69.4805 25.5059ZM72.6035 23.7715C72.6035 23.1504 72.7246 22.5918 72.9668 22.0957C73.2129 21.5996 73.5527 21.2168 73.9863 20.9473C74.4238 20.6777 74.9219 20.543 75.4805 20.543C76.3438 20.543 77.041 20.8418 77.5723 21.4395C78.1074 22.0371 78.375 22.832 78.375 23.8242V23.9004C78.375 24.5176 78.2559 25.0723 78.0176 25.5645C77.7832 26.0527 77.4453 26.4336 77.0039 26.707C76.5664 26.9805 76.0625 27.1172 75.4922 27.1172C74.6328 27.1172 73.9355 26.8184 73.4004 26.2207C72.8691 25.623 72.6035 24.832 72.6035 23.8477V23.7715ZM73.6934 23.9004C73.6934 24.6035 73.8555 25.168 74.1797 25.5938C74.5078 26.0195 74.9453 26.2324 75.4922 26.2324C76.043 26.2324 76.4805 26.0176 76.8047 25.5879C77.1289 25.1543 77.291 24.5488 77.291 23.7715C77.291 23.0762 77.125 22.5137 76.793 22.084C76.4648 21.6504 76.0273 21.4336 75.4805 21.4336C74.9453 21.4336 74.5137 21.6465 74.1855 22.0723C73.8574 22.498 73.6934 23.1074 73.6934 23.9004ZM82.7988 21.6328C82.6348 21.6055 82.457 21.5918 82.2656 21.5918C81.5547 21.5918 81.0723 21.8945 80.8184 22.5V27H79.7344V20.6602H80.7891L80.8066 21.3926C81.1621 20.8262 81.666 20.543 82.3184 20.543C82.5293 20.543 82.6895 20.5703 82.7988 20.625V21.6328ZM85.5703 24.0645L84.8906 24.7734V27H83.8066V18H84.8906V23.4434L85.4707 22.7461L87.4453 20.6602H88.7637L86.2969 23.3086L89.0508 27H87.7793L85.5703 24.0645ZM93.5742 25.3184C93.5742 25.0254 93.4629 24.7988 93.2402 24.6387C93.0215 24.4746 92.6367 24.334 92.0859 24.2168C91.5391 24.0996 91.1035 23.959 90.7793 23.7949C90.459 23.6309 90.2207 23.4355 90.0645 23.209C89.9121 22.9824 89.8359 22.7129 89.8359 22.4004C89.8359 21.8809 90.0547 21.4414 90.4922 21.082C90.9336 20.7227 91.4961 20.543 92.1797 20.543C92.8984 20.543 93.4805 20.7285 93.9258 21.0996C94.375 21.4707 94.5996 21.9453 94.5996 22.5234H93.5098C93.5098 22.2266 93.3828 21.9707 93.1289 21.7559C92.8789 21.541 92.5625 21.4336 92.1797 21.4336C91.7852 21.4336 91.4766 21.5195 91.2539 21.6914C91.0312 21.8633 90.9199 22.0879 90.9199 22.3652C90.9199 22.627 91.0234 22.8242 91.2305 22.957C91.4375 23.0898 91.8105 23.2168 92.3496 23.3379C92.8926 23.459 93.332 23.6035 93.668 23.7715C94.0039 23.9395 94.252 24.1426 94.4121 24.3809C94.5762 24.6152 94.6582 24.9023 94.6582 25.2422C94.6582 25.8086 94.4316 26.2637 93.9785 26.6074C93.5254 26.9473 92.9375 27.1172 92.2148 27.1172C91.707 27.1172 91.2578 27.0273 90.8672 26.8477C90.4766 26.668 90.1699 26.418 89.9473 26.0977C89.7285 25.7734 89.6191 25.4238 89.6191 25.0488H90.7031C90.7227 25.4121 90.8672 25.7012 91.1367 25.916C91.4102 26.127 91.7695 26.2324 92.2148 26.2324C92.625 26.2324 92.9531 26.1504 93.1992 25.9863C93.4492 25.8184 93.5742 25.5957 93.5742 25.3184ZM97.1543 21.4277C97.6348 20.8379 98.2598 20.543 99.0293 20.543C100.369 20.543 101.045 21.2988 101.057 22.8105V27H99.9727V22.8047C99.9688 22.3477 99.8633 22.0098 99.6562 21.791C99.4531 21.5723 99.1348 21.4629 98.7012 21.4629C98.3496 21.4629 98.041 21.5566 97.7754 21.7441C97.5098 21.9316 97.3027 22.1777 97.1543 22.4824V27H96.0703V18H97.1543V21.4277ZM102.393 23.7715C102.393 23.1504 102.514 22.5918 102.756 22.0957C103.002 21.5996 103.342 21.2168 103.775 20.9473C104.213 20.6777 104.711 20.543 105.27 20.543C106.133 20.543 106.83 20.8418 107.361 21.4395C107.896 22.0371 108.164 22.832 108.164 23.8242V23.9004C108.164 24.5176 108.045 25.0723 107.807 25.5645C107.572 26.0527 107.234 26.4336 106.793 26.707C106.355 26.9805 105.852 27.1172 105.281 27.1172C104.422 27.1172 103.725 26.8184 103.189 26.2207C102.658 25.623 102.393 24.832 102.393 23.8477V23.7715ZM103.482 23.9004C103.482 24.6035 103.645 25.168 103.969 25.5938C104.297 26.0195 104.734 26.2324 105.281 26.2324C105.832 26.2324 106.27 26.0176 106.594 25.5879C106.918 25.1543 107.08 24.5488 107.08 23.7715C107.08 23.0762 106.914 22.5137 106.582 22.084C106.254 21.6504 105.816 21.4336 105.27 21.4336C104.734 21.4336 104.303 21.6465 103.975 22.0723C103.646 22.498 103.482 23.1074 103.482 23.9004ZM114.879 23.9004C114.879 24.8652 114.658 25.6426 114.217 26.2324C113.775 26.8223 113.178 27.1172 112.424 27.1172C111.654 27.1172 111.049 26.873 110.607 26.3848V29.4375H109.523V20.6602H110.514L110.566 21.3633C111.008 20.8164 111.621 20.543 112.406 20.543C113.168 20.543 113.77 20.8301 114.211 21.4043C114.656 21.9785 114.879 22.7773 114.879 23.8008V23.9004ZM113.795 23.7773C113.795 23.0625 113.643 22.498 113.338 22.084C113.033 21.6699 112.615 21.4629 112.084 21.4629C111.428 21.4629 110.936 21.7539 110.607 22.3359V25.3652C110.932 25.9434 111.428 26.2324 112.096 26.2324C112.615 26.2324 113.027 26.0273 113.332 25.6172C113.641 25.2031 113.795 24.5898 113.795 23.7773Z" fill="black"/>
</svg>
